<svg width="16" height="16" viewBox="0 0 16 16" fill="none" xmlns="http://www.w3.org/2000/svg">
                <mask id="mask0_1543_316" style="mask-type:alpha" maskUnits="userSpaceOnUse" x="0" y="0" width="16" height="16">
                  <path fill-rule="evenodd" clip-rule="evenodd" d="M0 0H16V16H0V0Z" fill="white"/>
                </mask>
                <g mask="url(#mask0_1543_316)">
                  <path fill-rule="evenodd" clip-rule="evenodd" d="M10.9031 9.67505L8.27591 10.856L7.84561 11.4706C7.82433 11.5011 7.78263 11.5084 7.75216 11.4871L5.13395 9.65395C5.10365 9.6325 5.09633 9.59046 5.11778 9.56016L5.55148 8.94808L5.76272 6.07577C5.76663 6.02386 5.82535 5.99594 5.86808 6.02573L10.914 9.55897C10.9566 9.58876 10.9505 9.65378 10.9031 9.67505ZM7.18029 11.8677L6.78166 12.4374C6.76157 12.4609 6.72838 12.4692 6.70029 12.4692L3.57485 12.4706C3.5328 12.4561 3.51629 12.4054 3.54183 12.3688L4.97587 10.3242C4.99714 10.2939 5.03885 10.2864 5.06931 10.3077L7.16378 11.7744C7.19408 11.7957 7.2014 11.8374 7.18029 11.8677ZM15.9236 2.61053L11.3913 9.08314C11.3624 9.1245 11.3055 9.13454 11.2642 9.10544L6.1743 5.54156C6.13311 5.51279 6.12306 5.45577 6.152 5.41458L9.94332 0H3.31881C1.48596 0 0 1.48594 0 3.31877V12.6811C0 14.5141 1.48596 16 3.31881 16H12.6812C14.5142 16 16 14.5141 16 12.6811V3.31877C16 3.07571 15.9731 2.83878 15.9236 2.61053Z" fill="#C2C6CE"/>
                </g>
              </svg>