<svg width="12" height="12" viewBox="0 0 12 12" fill="none" xmlns="http://www.w3.org/2000/svg">
<path fill-rule="evenodd" clip-rule="evenodd" d="M7.40217 0.164726L5.06345 3.50456L9.12099 6.29412L11.2991 3.18335C11.7465 4.02323 12 4.98201 12 6C12 9.31371 9.31371 12 6 12C2.68629 12 0 9.31371 0 6C0 2.68629 2.68629 0 6 0C6.48283 0 6.95234 0.0570317 7.40217 0.164726ZM4.55667 6.28862L4.71343 4.15455L8.64891 6.86019L6.65363 7.75702L6.37204 8.15975L4.27799 6.6816L4.55667 6.28862ZM4.09827 7.36886L5.79547 8.5569L5.50353 8.97447C5.48814 8.99256 5.46235 8.99872 5.4408 8.99872L3.03515 8.99988C3.02754 8.99732 3.02064 8.99303 3.01498 8.98733C3.00933 8.98164 3.00508 8.9747 3.00257 8.96708C3.00007 8.95946 2.99938 8.95135 3.00056 8.94342C3.00174 8.93548 3.00475 8.92793 3.00936 8.92136L4.09827 7.36886Z" fill="#959CA6"/>
</svg>
