<svg width="201" height="79" viewBox="0 0 201 79" fill="none" xmlns="http://www.w3.org/2000/svg">
<path d="M56.0342 72.1553V73H51.3027C51.2962 72.7884 51.3304 72.585 51.4053 72.3896C51.5257 72.0674 51.7178 71.75 51.9814 71.4375C52.2484 71.125 52.6325 70.7637 53.1338 70.3535C53.9118 69.7155 54.4375 69.2109 54.7109 68.8398C54.9844 68.4655 55.1211 68.1123 55.1211 67.7803C55.1211 67.432 54.9958 67.139 54.7451 66.9014C54.4977 66.6605 54.1738 66.54 53.7734 66.54C53.3503 66.54 53.0117 66.667 52.7578 66.9209C52.5039 67.1748 52.3753 67.5264 52.3721 67.9756L51.4688 67.8828C51.5306 67.209 51.7633 66.6963 52.167 66.3447C52.5706 65.9899 53.1126 65.8125 53.793 65.8125C54.4798 65.8125 55.0234 66.0029 55.4238 66.3838C55.8242 66.7646 56.0244 67.2367 56.0244 67.7998C56.0244 68.0863 55.9658 68.3678 55.8486 68.6445C55.7314 68.9212 55.5361 69.2126 55.2627 69.5186C54.9925 69.8245 54.5417 70.2445 53.9102 70.7783C53.3828 71.221 53.0443 71.5221 52.8945 71.6816C52.7448 71.8379 52.6211 71.9958 52.5234 72.1553H56.0342ZM60.292 73H59.4131V67.3994C59.2015 67.6012 58.9232 67.8031 58.5781 68.0049C58.2363 68.2067 57.9287 68.3581 57.6553 68.459V67.6094C58.1468 67.3783 58.5765 67.0983 58.9443 66.7695C59.3122 66.4408 59.5726 66.1217 59.7256 65.8125H60.292V73ZM65.6484 73V65.8418H66.5957V72.1553H70.1211V73H65.6484ZM71.415 73V65.8418H72.3623V73H71.415ZM74.0273 73V65.8418H74.999L78.7588 71.4619V65.8418H79.667V73H78.6953L74.9355 67.375V73H74.0273ZM81.2832 73V65.8418H86.459V66.6865H82.2305V68.8789H86.1904V69.7188H82.2305V72.1553H86.625V73H81.2832ZM87.9482 73V65.8418H91.1221C91.7601 65.8418 92.2451 65.9069 92.5771 66.0371C92.9092 66.1641 93.1745 66.3903 93.373 66.7158C93.5716 67.0413 93.6709 67.401 93.6709 67.7949C93.6709 68.3027 93.5065 68.7308 93.1777 69.0791C92.849 69.4274 92.3411 69.6488 91.6543 69.7432C91.9049 69.8636 92.0954 69.9824 92.2256 70.0996C92.5023 70.3535 92.7643 70.6709 93.0117 71.0518L94.2568 73H93.0654L92.1182 71.5107C91.8415 71.0811 91.6136 70.7523 91.4346 70.5244C91.2555 70.2965 91.0944 70.137 90.9512 70.0459C90.8112 69.9548 90.668 69.8913 90.5215 69.8555C90.4141 69.8327 90.2383 69.8213 89.9941 69.8213H88.8955V73H87.9482ZM88.8955 69.001H90.9316C91.3646 69.001 91.7031 68.957 91.9473 68.8691C92.1914 68.778 92.377 68.6348 92.5039 68.4395C92.6309 68.2409 92.6943 68.026 92.6943 67.7949C92.6943 67.4564 92.5706 67.1781 92.3232 66.96C92.0791 66.7419 91.6917 66.6328 91.1611 66.6328H88.8955V69.001ZM102.641 65.8418H103.588V69.9775C103.588 70.6969 103.507 71.2682 103.344 71.6914C103.181 72.1146 102.886 72.4596 102.46 72.7266C102.037 72.9902 101.48 73.1221 100.79 73.1221C100.119 73.1221 99.571 73.0065 99.1445 72.7754C98.7181 72.5443 98.4137 72.2106 98.2314 71.7744C98.0492 71.335 97.958 70.736 97.958 69.9775V65.8418H98.9053V69.9727C98.9053 70.5944 98.9622 71.0534 99.0762 71.3496C99.1934 71.6426 99.3919 71.8688 99.6719 72.0283C99.9551 72.1878 100.3 72.2676 100.707 72.2676C101.404 72.2676 101.9 72.1097 102.196 71.7939C102.493 71.4782 102.641 70.8711 102.641 69.9727V65.8418ZM104.706 71.4521L105.575 71.3154C105.624 71.6637 105.759 71.9307 105.98 72.1162C106.205 72.3018 106.518 72.3945 106.918 72.3945C107.322 72.3945 107.621 72.3132 107.816 72.1504C108.012 71.9844 108.109 71.7907 108.109 71.5693C108.109 71.3708 108.023 71.2145 107.851 71.1006C107.73 71.0225 107.431 70.9232 106.952 70.8027C106.308 70.64 105.86 70.5 105.609 70.3828C105.362 70.2624 105.173 70.098 105.043 69.8896C104.916 69.6781 104.853 69.4453 104.853 69.1914C104.853 68.9603 104.905 68.7471 105.009 68.5518C105.116 68.3532 105.261 68.1888 105.443 68.0586C105.58 67.9577 105.766 67.873 106 67.8047C106.238 67.7331 106.492 67.6973 106.762 67.6973C107.169 67.6973 107.525 67.7559 107.831 67.873C108.14 67.9902 108.368 68.1497 108.515 68.3516C108.661 68.5501 108.762 68.8171 108.817 69.1523L107.958 69.2695C107.919 69.0026 107.805 68.7943 107.616 68.6445C107.431 68.4948 107.167 68.4199 106.825 68.4199C106.422 68.4199 106.133 68.4867 105.961 68.6201C105.788 68.7536 105.702 68.9098 105.702 69.0889C105.702 69.2028 105.738 69.3053 105.81 69.3965C105.881 69.4909 105.993 69.569 106.146 69.6309C106.234 69.6634 106.493 69.7383 106.923 69.8555C107.545 70.0215 107.978 70.1582 108.222 70.2656C108.469 70.3698 108.663 70.5228 108.803 70.7246C108.943 70.9264 109.013 71.1771 109.013 71.4766C109.013 71.7695 108.926 72.0462 108.754 72.3066C108.585 72.5638 108.339 72.764 108.017 72.9072C107.694 73.0472 107.33 73.1172 106.923 73.1172C106.249 73.1172 105.735 72.9772 105.38 72.6973C105.028 72.4173 104.804 72.0023 104.706 71.4521ZM113.607 71.3301L114.516 71.4424C114.372 71.973 114.107 72.3848 113.72 72.6777C113.332 72.9707 112.838 73.1172 112.235 73.1172C111.477 73.1172 110.875 72.8844 110.429 72.4189C109.986 71.9502 109.765 71.2943 109.765 70.4512C109.765 69.5788 109.989 68.9017 110.438 68.4199C110.888 67.9382 111.47 67.6973 112.187 67.6973C112.88 67.6973 113.446 67.9333 113.886 68.4053C114.325 68.8773 114.545 69.5413 114.545 70.3975C114.545 70.4495 114.543 70.5277 114.54 70.6318H110.673C110.705 71.2015 110.867 71.6377 111.156 71.9404C111.446 72.2432 111.807 72.3945 112.24 72.3945C112.562 72.3945 112.838 72.3099 113.065 72.1406C113.293 71.9714 113.474 71.7012 113.607 71.3301ZM110.722 69.9092H113.617C113.578 69.473 113.467 69.1458 113.285 68.9277C113.005 68.5892 112.642 68.4199 112.196 68.4199C111.793 68.4199 111.452 68.555 111.176 68.8252C110.902 69.0954 110.751 69.4567 110.722 69.9092ZM115.614 73V67.8145H116.405V68.6006C116.607 68.2327 116.793 67.9902 116.962 67.873C117.134 67.7559 117.323 67.6973 117.528 67.6973C117.825 67.6973 118.126 67.7917 118.432 67.9805L118.129 68.7959C117.914 68.6689 117.699 68.6055 117.484 68.6055C117.292 68.6055 117.12 68.6641 116.967 68.7812C116.814 68.8952 116.705 69.0547 116.64 69.2598C116.542 69.5723 116.493 69.9141 116.493 70.2852V73H115.614ZM118.603 71.4521L119.472 71.3154C119.521 71.6637 119.656 71.9307 119.877 72.1162C120.102 72.3018 120.414 72.3945 120.814 72.3945C121.218 72.3945 121.518 72.3132 121.713 72.1504C121.908 71.9844 122.006 71.7907 122.006 71.5693C122.006 71.3708 121.92 71.2145 121.747 71.1006C121.627 71.0225 121.327 70.9232 120.849 70.8027C120.204 70.64 119.757 70.5 119.506 70.3828C119.258 70.2624 119.07 70.098 118.939 69.8896C118.812 69.6781 118.749 69.4453 118.749 69.1914C118.749 68.9603 118.801 68.7471 118.905 68.5518C119.013 68.3532 119.158 68.1888 119.34 68.0586C119.477 67.9577 119.662 67.873 119.896 67.8047C120.134 67.7331 120.388 67.6973 120.658 67.6973C121.065 67.6973 121.422 67.7559 121.728 67.873C122.037 67.9902 122.265 68.1497 122.411 68.3516C122.558 68.5501 122.659 68.8171 122.714 69.1523L121.854 69.2695C121.815 69.0026 121.701 68.7943 121.513 68.6445C121.327 68.4948 121.063 68.4199 120.722 68.4199C120.318 68.4199 120.03 68.4867 119.857 68.6201C119.685 68.7536 119.599 68.9098 119.599 69.0889C119.599 69.2028 119.634 69.3053 119.706 69.3965C119.778 69.4909 119.89 69.569 120.043 69.6309C120.131 69.6634 120.39 69.7383 120.819 69.8555C121.441 70.0215 121.874 70.1582 122.118 70.2656C122.366 70.3698 122.559 70.5228 122.699 70.7246C122.839 70.9264 122.909 71.1771 122.909 71.4766C122.909 71.7695 122.823 72.0462 122.65 72.3066C122.481 72.5638 122.235 72.764 121.913 72.9072C121.591 73.0472 121.226 73.1172 120.819 73.1172C120.146 73.1172 119.631 72.9772 119.276 72.6973C118.925 72.4173 118.7 72.0023 118.603 71.4521ZM128.656 72.2139L128.783 72.9902C128.536 73.0423 128.314 73.0684 128.119 73.0684C127.8 73.0684 127.553 73.0179 127.377 72.917C127.201 72.8161 127.077 72.6842 127.006 72.5215C126.934 72.3555 126.898 72.0088 126.898 71.4814V68.498H126.254V67.8145H126.898V66.5303L127.772 66.0029V67.8145H128.656V68.498H127.772V71.5303C127.772 71.7809 127.787 71.9421 127.816 72.0137C127.849 72.0853 127.899 72.1423 127.968 72.1846C128.039 72.2269 128.14 72.248 128.271 72.248C128.368 72.248 128.497 72.2367 128.656 72.2139ZM129.511 73V67.8145H130.302V68.6006C130.504 68.2327 130.689 67.9902 130.858 67.873C131.031 67.7559 131.22 67.6973 131.425 67.6973C131.721 67.6973 132.022 67.7917 132.328 67.9805L132.025 68.7959C131.811 68.6689 131.596 68.6055 131.381 68.6055C131.189 68.6055 131.016 68.6641 130.863 68.7812C130.71 68.8952 130.601 69.0547 130.536 69.2598C130.438 69.5723 130.39 69.9141 130.39 70.2852V73H129.511ZM136.249 73V72.2383C135.845 72.8242 135.297 73.1172 134.604 73.1172C134.298 73.1172 134.011 73.0586 133.744 72.9414C133.48 72.8242 133.284 72.6777 133.153 72.502C133.026 72.3229 132.937 72.1048 132.885 71.8477C132.849 71.6751 132.831 71.4017 132.831 71.0273V67.8145H133.71V70.6904C133.71 71.1494 133.728 71.4587 133.764 71.6182C133.819 71.8493 133.936 72.0316 134.115 72.165C134.294 72.2952 134.516 72.3604 134.779 72.3604C135.043 72.3604 135.29 72.2936 135.521 72.1602C135.753 72.0234 135.915 71.8395 136.01 71.6084C136.107 71.374 136.156 71.0355 136.156 70.5928V67.8145H137.035V73H136.249ZM138.065 71.4521L138.935 71.3154C138.983 71.6637 139.118 71.9307 139.34 72.1162C139.564 72.3018 139.877 72.3945 140.277 72.3945C140.681 72.3945 140.98 72.3132 141.176 72.1504C141.371 71.9844 141.469 71.7907 141.469 71.5693C141.469 71.3708 141.382 71.2145 141.21 71.1006C141.09 71.0225 140.79 70.9232 140.312 70.8027C139.667 70.64 139.219 70.5 138.969 70.3828C138.721 70.2624 138.533 70.098 138.402 69.8896C138.275 69.6781 138.212 69.4453 138.212 69.1914C138.212 68.9603 138.264 68.7471 138.368 68.5518C138.476 68.3532 138.62 68.1888 138.803 68.0586C138.939 67.9577 139.125 67.873 139.359 67.8047C139.597 67.7331 139.851 67.6973 140.121 67.6973C140.528 67.6973 140.884 67.7559 141.19 67.873C141.5 67.9902 141.728 68.1497 141.874 68.3516C142.021 68.5501 142.121 68.8171 142.177 69.1523L141.317 69.2695C141.278 69.0026 141.164 68.7943 140.976 68.6445C140.79 68.4948 140.526 68.4199 140.185 68.4199C139.781 68.4199 139.493 68.4867 139.32 68.6201C139.148 68.7536 139.062 68.9098 139.062 69.0889C139.062 69.2028 139.097 69.3053 139.169 69.3965C139.241 69.4909 139.353 69.569 139.506 69.6309C139.594 69.6634 139.853 69.7383 140.282 69.8555C140.904 70.0215 141.337 70.1582 141.581 70.2656C141.828 70.3698 142.022 70.5228 142.162 70.7246C142.302 70.9264 142.372 71.1771 142.372 71.4766C142.372 71.7695 142.286 72.0462 142.113 72.3066C141.944 72.5638 141.698 72.764 141.376 72.9072C141.054 73.0472 140.689 73.1172 140.282 73.1172C139.608 73.1172 139.094 72.9772 138.739 72.6973C138.388 72.4173 138.163 72.0023 138.065 71.4521ZM145.336 72.2139L145.463 72.9902C145.215 73.0423 144.994 73.0684 144.799 73.0684C144.48 73.0684 144.232 73.0179 144.057 72.917C143.881 72.8161 143.757 72.6842 143.686 72.5215C143.614 72.3555 143.578 72.0088 143.578 71.4814V68.498H142.934V67.8145H143.578V66.5303L144.452 66.0029V67.8145H145.336V68.498H144.452V71.5303C144.452 71.7809 144.467 71.9421 144.496 72.0137C144.529 72.0853 144.579 72.1423 144.647 72.1846C144.719 72.2269 144.82 72.248 144.95 72.248C145.048 72.248 145.176 72.2367 145.336 72.2139ZM149.75 71.3301L150.658 71.4424C150.515 71.973 150.25 72.3848 149.862 72.6777C149.475 72.9707 148.98 73.1172 148.378 73.1172C147.619 73.1172 147.017 72.8844 146.571 72.4189C146.129 71.9502 145.907 71.2943 145.907 70.4512C145.907 69.5788 146.132 68.9017 146.581 68.4199C147.03 67.9382 147.613 67.6973 148.329 67.6973C149.022 67.6973 149.589 67.9333 150.028 68.4053C150.468 68.8773 150.688 69.5413 150.688 70.3975C150.688 70.4495 150.686 70.5277 150.683 70.6318H146.815C146.848 71.2015 147.009 71.6377 147.299 71.9404C147.589 72.2432 147.95 72.3945 148.383 72.3945C148.705 72.3945 148.98 72.3099 149.208 72.1406C149.436 71.9714 149.617 71.7012 149.75 71.3301ZM146.864 69.9092H149.76C149.721 69.473 149.61 69.1458 149.428 68.9277C149.148 68.5892 148.785 68.4199 148.339 68.4199C147.935 68.4199 147.595 68.555 147.318 68.8252C147.045 69.0954 146.894 69.4567 146.864 69.9092ZM155.131 73V72.3457C154.802 72.86 154.319 73.1172 153.681 73.1172C153.267 73.1172 152.886 73.0033 152.538 72.7754C152.193 72.5475 151.924 72.2301 151.732 71.8232C151.544 71.4131 151.449 70.9427 151.449 70.4121C151.449 69.8945 151.535 69.4258 151.708 69.0059C151.881 68.5827 152.139 68.2588 152.484 68.0342C152.829 67.8096 153.215 67.6973 153.642 67.6973C153.954 67.6973 154.232 67.764 154.477 67.8975C154.721 68.0277 154.919 68.1986 155.072 68.4102V65.8418H155.946V73H155.131ZM152.353 70.4121C152.353 71.0762 152.493 71.5726 152.772 71.9014C153.052 72.2301 153.383 72.3945 153.764 72.3945C154.148 72.3945 154.473 72.2383 154.74 71.9258C155.01 71.61 155.146 71.1299 155.146 70.4854C155.146 69.7757 155.009 69.2549 154.735 68.9229C154.462 68.5908 154.125 68.4248 153.725 68.4248C153.334 68.4248 153.007 68.5843 152.743 68.9033C152.483 69.2223 152.353 69.7253 152.353 70.4121ZM162.035 72.2139L162.162 72.9902C161.915 73.0423 161.693 73.0684 161.498 73.0684C161.179 73.0684 160.932 73.0179 160.756 72.917C160.58 72.8161 160.456 72.6842 160.385 72.5215C160.313 72.3555 160.277 72.0088 160.277 71.4814V68.498H159.633V67.8145H160.277V66.5303L161.151 66.0029V67.8145H162.035V68.498H161.151V71.5303C161.151 71.7809 161.166 71.9421 161.195 72.0137C161.228 72.0853 161.278 72.1423 161.347 72.1846C161.418 72.2269 161.519 72.248 161.649 72.248C161.747 72.248 161.876 72.2367 162.035 72.2139ZM162.899 73V65.8418H163.778V68.4102C164.188 67.9349 164.706 67.6973 165.331 67.6973C165.715 67.6973 166.049 67.7738 166.332 67.9268C166.615 68.0765 166.817 68.2848 166.938 68.5518C167.061 68.8187 167.123 69.2061 167.123 69.7139V73H166.244V69.7139C166.244 69.2744 166.148 68.9554 165.956 68.7568C165.767 68.555 165.499 68.4541 165.15 68.4541C164.89 68.4541 164.644 68.5225 164.413 68.6592C164.185 68.7926 164.022 68.9749 163.925 69.2061C163.827 69.4372 163.778 69.7562 163.778 70.1631V73H162.899ZM168.471 66.8525V65.8418H169.35V66.8525H168.471ZM168.471 73V67.8145H169.35V73H168.471ZM170.341 71.4521L171.21 71.3154C171.259 71.6637 171.394 71.9307 171.615 72.1162C171.84 72.3018 172.152 72.3945 172.553 72.3945C172.956 72.3945 173.256 72.3132 173.451 72.1504C173.646 71.9844 173.744 71.7907 173.744 71.5693C173.744 71.3708 173.658 71.2145 173.485 71.1006C173.365 71.0225 173.065 70.9232 172.587 70.8027C171.942 70.64 171.495 70.5 171.244 70.3828C170.997 70.2624 170.808 70.098 170.678 69.8896C170.551 69.6781 170.487 69.4453 170.487 69.1914C170.487 68.9603 170.539 68.7471 170.644 68.5518C170.751 68.3532 170.896 68.1888 171.078 68.0586C171.215 67.9577 171.4 67.873 171.635 67.8047C171.872 67.7331 172.126 67.6973 172.396 67.6973C172.803 67.6973 173.16 67.7559 173.466 67.873C173.775 67.9902 174.003 68.1497 174.149 68.3516C174.296 68.5501 174.397 68.8171 174.452 69.1523L173.593 69.2695C173.554 69.0026 173.44 68.7943 173.251 68.6445C173.065 68.4948 172.802 68.4199 172.46 68.4199C172.056 68.4199 171.768 68.4867 171.596 68.6201C171.423 68.7536 171.337 68.9098 171.337 69.0889C171.337 69.2028 171.373 69.3053 171.444 69.3965C171.516 69.4909 171.628 69.569 171.781 69.6309C171.869 69.6634 172.128 69.7383 172.558 69.8555C173.179 70.0215 173.612 70.1582 173.856 70.2656C174.104 70.3698 174.298 70.5228 174.438 70.7246C174.577 70.9264 174.647 71.1771 174.647 71.4766C174.647 71.7695 174.561 72.0462 174.389 72.3066C174.219 72.5638 173.974 72.764 173.651 72.9072C173.329 73.0472 172.965 73.1172 172.558 73.1172C171.884 73.1172 171.369 72.9772 171.015 72.6973C170.663 72.4173 170.438 72.0023 170.341 71.4521ZM178.476 74.9873V67.8145H179.276V68.4883C179.465 68.2246 179.678 68.0277 179.916 67.8975C180.154 67.764 180.442 67.6973 180.78 67.6973C181.223 67.6973 181.614 67.8112 181.952 68.0391C182.291 68.2669 182.546 68.5892 182.719 69.0059C182.891 69.4193 182.978 69.8734 182.978 70.3682C182.978 70.8988 182.882 71.3773 182.689 71.8037C182.501 72.2269 182.224 72.5524 181.859 72.7803C181.498 73.0049 181.117 73.1172 180.717 73.1172C180.424 73.1172 180.16 73.0553 179.926 72.9316C179.695 72.8079 179.504 72.6517 179.354 72.4629V74.9873H178.476ZM179.271 70.4365C179.271 71.1038 179.407 71.597 179.677 71.916C179.947 72.235 180.274 72.3945 180.658 72.3945C181.049 72.3945 181.382 72.2301 181.659 71.9014C181.939 71.5693 182.079 71.0566 182.079 70.3633C182.079 69.7025 181.942 69.2077 181.669 68.8789C181.399 68.5501 181.075 68.3857 180.697 68.3857C180.323 68.3857 179.991 68.5615 179.701 68.9131C179.415 69.2614 179.271 69.7692 179.271 70.4365ZM187.426 72.3604C187.1 72.637 186.786 72.8324 186.483 72.9463C186.184 73.0602 185.862 73.1172 185.517 73.1172C184.947 73.1172 184.509 72.9788 184.203 72.7021C183.897 72.4222 183.744 72.0658 183.744 71.6328C183.744 71.3789 183.801 71.1478 183.915 70.9395C184.032 70.7279 184.184 70.5586 184.369 70.4316C184.558 70.3047 184.77 70.2087 185.004 70.1436C185.176 70.098 185.437 70.054 185.785 70.0117C186.495 69.9271 187.017 69.8262 187.353 69.709C187.356 69.5885 187.357 69.512 187.357 69.4795C187.357 69.1214 187.274 68.8691 187.108 68.7227C186.884 68.5241 186.55 68.4248 186.107 68.4248C185.694 68.4248 185.388 68.498 185.189 68.6445C184.994 68.7878 184.849 69.0433 184.755 69.4111L183.896 69.2939C183.974 68.9261 184.102 68.6299 184.281 68.4053C184.46 68.1774 184.719 68.0033 185.058 67.8828C185.396 67.7591 185.788 67.6973 186.234 67.6973C186.677 67.6973 187.037 67.7493 187.313 67.8535C187.59 67.9577 187.794 68.0895 187.924 68.249C188.054 68.4053 188.145 68.6038 188.197 68.8447C188.227 68.9945 188.241 69.2646 188.241 69.6553V70.8271C188.241 71.6442 188.259 72.1618 188.295 72.3799C188.334 72.5947 188.409 72.8014 188.52 73H187.602C187.51 72.8177 187.452 72.6045 187.426 72.3604ZM187.353 70.3975C187.034 70.5277 186.555 70.6383 185.917 70.7295C185.556 70.7816 185.3 70.8402 185.15 70.9053C185.001 70.9704 184.885 71.0664 184.804 71.1934C184.722 71.3171 184.682 71.4554 184.682 71.6084C184.682 71.8428 184.77 72.0381 184.945 72.1943C185.124 72.3506 185.385 72.4287 185.727 72.4287C186.065 72.4287 186.366 72.3555 186.63 72.209C186.894 72.0592 187.087 71.8558 187.211 71.5986C187.305 71.4001 187.353 71.1071 187.353 70.7197V70.3975ZM189.447 73.4297L190.302 73.5566C190.338 73.8203 190.437 74.0124 190.6 74.1328C190.818 74.2956 191.116 74.377 191.493 74.377C191.9 74.377 192.214 74.2956 192.436 74.1328C192.657 73.9701 192.807 73.7422 192.885 73.4492C192.93 73.2702 192.951 72.8942 192.948 72.3213C192.564 72.7738 192.086 73 191.513 73C190.8 73 190.248 72.7428 189.857 72.2285C189.467 71.7142 189.271 71.0973 189.271 70.3779C189.271 69.8831 189.361 69.4274 189.54 69.0107C189.719 68.5908 189.978 68.2669 190.316 68.0391C190.658 67.8112 191.059 67.6973 191.518 67.6973C192.13 67.6973 192.634 67.9447 193.031 68.4395V67.8145H193.842V72.2969C193.842 73.1042 193.759 73.6755 193.593 74.0107C193.43 74.3493 193.17 74.6162 192.812 74.8115C192.457 75.0068 192.019 75.1045 191.498 75.1045C190.88 75.1045 190.38 74.9645 189.999 74.6846C189.618 74.4079 189.434 73.9896 189.447 73.4297ZM190.175 70.3145C190.175 70.9948 190.31 71.4912 190.58 71.8037C190.85 72.1162 191.189 72.2725 191.596 72.2725C191.999 72.2725 192.338 72.1178 192.611 71.8086C192.885 71.4961 193.021 71.0078 193.021 70.3438C193.021 69.709 192.88 69.2305 192.597 68.9082C192.317 68.5859 191.978 68.4248 191.581 68.4248C191.19 68.4248 190.858 68.5843 190.585 68.9033C190.312 69.2191 190.175 69.6895 190.175 70.3145ZM198.725 71.3301L199.633 71.4424C199.49 71.973 199.224 72.3848 198.837 72.6777C198.45 72.9707 197.955 73.1172 197.353 73.1172C196.594 73.1172 195.992 72.8844 195.546 72.4189C195.103 71.9502 194.882 71.2943 194.882 70.4512C194.882 69.5788 195.106 68.9017 195.556 68.4199C196.005 67.9382 196.588 67.6973 197.304 67.6973C197.997 67.6973 198.563 67.9333 199.003 68.4053C199.442 68.8773 199.662 69.5413 199.662 70.3975C199.662 70.4495 199.66 70.5277 199.657 70.6318H195.79C195.823 71.2015 195.984 71.6377 196.273 71.9404C196.563 72.2432 196.924 72.3945 197.357 72.3945C197.68 72.3945 197.955 72.3099 198.183 72.1406C198.41 71.9714 198.591 71.7012 198.725 71.3301ZM195.839 69.9092H198.734C198.695 69.473 198.585 69.1458 198.402 68.9277C198.122 68.5892 197.759 68.4199 197.313 68.4199C196.91 68.4199 196.57 68.555 196.293 68.8252C196.02 69.0954 195.868 69.4567 195.839 69.9092Z" fill="#969AA2"/>
<g clip-path="url(#clip0_1543_464)">
<path d="M34 77C38.4183 77 42 73.4183 42 69C42 64.5817 38.4183 61 34 61C29.5817 61 26 64.5817 26 69C26 73.4183 29.5817 77 34 77Z" fill="#FFD073"/>
<path d="M34.0076 76.8248C36.9195 76.8248 39.28 74.4643 39.28 71.5524C39.28 68.6406 36.9195 66.28 34.0076 66.28C31.0958 66.28 28.7352 68.6406 28.7352 71.5524C28.7352 74.4643 31.0958 76.8248 34.0076 76.8248Z" fill="#AA823C"/>
<path d="M34.0077 71.9638C36.8438 71.9638 39.1429 69.9444 39.1429 67.4533C39.1429 64.9623 36.8438 62.9429 34.0077 62.9429C31.1716 62.9429 28.8724 64.9623 28.8724 67.4533C28.8724 69.9444 31.1716 71.9638 34.0077 71.9638Z" fill="#AA823C"/>
<path d="M31.1276 74.8895V76.459H36.8876V71.019L31.1276 74.8895Z" fill="#FFFEE1"/>
<path d="M31.1276 69.9373V73.0992V76.1087L36.8876 72.2382V69.9373H31.1276Z" fill="#C9C7B5"/>
<path d="M34.1067 73.122H33.9086C32.0724 73.122 30.5867 71.6363 30.5867 69.8001V66.4782C30.5867 65.3887 31.4705 64.5049 32.56 64.5049H35.4476C36.5371 64.5049 37.421 65.3887 37.421 66.4782V69.8001C37.4286 71.6363 35.9429 73.122 34.1067 73.122Z" fill="#FFFEE1"/>
<path d="M36.8724 73.7466C35.1047 74.8057 32.8952 74.7981 31.1276 73.739L29.7104 75.7428C30.9524 76.5352 32.4228 77 34 77C35.5847 77 37.0628 76.5352 38.3047 75.7352L36.8876 73.739L36.8724 73.7466Z" fill="#60441B"/>
<path d="M30 69.823C30.4755 69.823 30.8609 69.4375 30.8609 68.962C30.8609 68.4865 30.4755 68.1011 30 68.1011C29.5245 68.1011 29.139 68.4865 29.139 68.962C29.139 69.4375 29.5245 69.823 30 69.823Z" fill="#FFFEE1"/>
<path d="M38.0153 69.823C38.4907 69.823 38.8762 69.4375 38.8762 68.962C38.8762 68.4865 38.4907 68.1011 38.0153 68.1011C37.5398 68.1011 37.1543 68.4865 37.1543 68.962C37.1543 69.4375 37.5398 69.823 38.0153 69.823Z" fill="#FFFEE1"/>
<path d="M30.5867 68.3449C30.5867 68.3449 32.8419 67.0344 33.9924 65.1068C33.9924 65.1068 36.8343 64.7868 37.421 68.3296V64.5049H30.5867V68.3449Z" fill="#AA823C"/>
</g>
<g clip-path="url(#clip1_1543_464)">
<path d="M22 77C26.4183 77 30 73.4183 30 69C30 64.5817 26.4183 61 22 61C17.5817 61 14 64.5817 14 69C14 73.4183 17.5817 77 22 77Z" fill="#48C7D8"/>
<path d="M19.1276 74.8895V76.459H24.8876V71.019L19.1276 74.8895Z" fill="#BBFAFF"/>
<path d="M22.5791 68.4514H21.4438V70.219H22.5791V68.4514Z" fill="#F5F3D1"/>
<path d="M19.1276 69.9373V73.0992V76.1087L24.8876 72.2382V69.9373H19.1276Z" fill="#86B7B7"/>
<path d="M22.1067 73.122H21.9086C20.0724 73.122 18.5867 71.6363 18.5867 69.8001V66.4782C18.5867 65.3887 19.4705 64.5049 20.56 64.5049H23.4476C24.5371 64.5049 25.421 65.3887 25.421 66.4782V69.8001C25.4286 71.6363 23.9429 73.122 22.1067 73.122Z" fill="#BBFAFF"/>
<path d="M21.9085 76.1466L19.1276 73.739L17.7104 75.7428C18.9524 76.5352 20.4228 77 22 77C23.5847 77 25.0628 76.5352 26.3047 75.7352L24.8876 73.739L21.9085 76.1466Z" fill="#079599"/>
<path d="M22.0076 66.7905C22.7987 66.7905 23.44 66.1492 23.44 65.3582C23.44 64.5671 22.7987 63.9258 22.0076 63.9258C21.2165 63.9258 20.5752 64.5671 20.5752 65.3582C20.5752 66.1492 21.2165 66.7905 22.0076 66.7905Z" fill="black"/>
<path d="M20.0952 66.7905C20.8863 66.7905 21.5276 66.1492 21.5276 65.3582C21.5276 64.5671 20.8863 63.9258 20.0952 63.9258C19.3041 63.9258 18.6628 64.5671 18.6628 65.3582C18.6628 66.1492 19.3041 66.7905 20.0952 66.7905Z" fill="black"/>
<path d="M23.9048 66.7905C24.6959 66.7905 25.3372 66.1492 25.3372 65.3582C25.3372 64.5671 24.6959 63.9258 23.9048 63.9258C23.1137 63.9258 22.4724 64.5671 22.4724 65.3582C22.4724 66.1492 23.1137 66.7905 23.9048 66.7905Z" fill="black"/>
<path d="M25.3599 68.4895C25.718 68.4895 26.0075 68.2 26.0075 67.8419V64.581C26.0075 64.2229 25.718 63.9333 25.3599 63.9333C25.0018 63.9333 24.7123 64.2229 24.7123 64.581V67.8419C24.7123 68.2 25.0018 68.4895 25.3599 68.4895Z" fill="black"/>
<path d="M18.6552 68.4895C19.0133 68.4895 19.3028 68.2 19.3028 67.8419V64.581C19.3028 64.2229 19.0133 63.9333 18.6552 63.9333C18.2971 63.9333 18.0076 64.2229 18.0076 64.581V67.8419C18.0076 68.2 18.2971 68.4895 18.6552 68.4895Z" fill="black"/>
<path d="M26.0153 69.823C26.4907 69.823 26.8762 69.4375 26.8762 68.962C26.8762 68.4865 26.4907 68.1011 26.0153 68.1011C25.5398 68.1011 25.1543 68.4865 25.1543 68.962C25.1543 69.4375 25.5398 69.823 26.0153 69.823Z" fill="#BBFAFF"/>
<path d="M18 69.823C18.4755 69.823 18.8609 69.4375 18.8609 68.962C18.8609 68.4865 18.4755 68.1011 18 68.1011C17.5245 68.1011 17.139 68.4865 17.139 68.962C17.139 69.4375 17.5245 69.823 18 69.823Z" fill="#BBFAFF"/>
</g>
<circle cx="22" cy="69" r="9" stroke="white" stroke-width="2"/>
<path d="M15.0254 30V19.9785H18.7852C19.5508 19.9785 20.1637 20.0811 20.624 20.2861C21.0889 20.4867 21.4512 20.7988 21.7109 21.2227C21.9753 21.6419 22.1074 22.0817 22.1074 22.542C22.1074 22.9704 21.9912 23.3737 21.7588 23.752C21.5264 24.1302 21.1755 24.4355 20.7061 24.668C21.3122 24.8457 21.777 25.1488 22.1006 25.5771C22.4287 26.0055 22.5928 26.5114 22.5928 27.0947C22.5928 27.5641 22.4925 28.0016 22.292 28.4072C22.096 28.8083 21.8522 29.1182 21.5605 29.3369C21.2689 29.5557 20.902 29.722 20.46 29.8359C20.0225 29.9453 19.4847 30 18.8467 30H15.0254ZM16.3516 24.1895H18.5186C19.1064 24.1895 19.528 24.1507 19.7832 24.0732C20.1204 23.973 20.3734 23.8066 20.542 23.5742C20.7152 23.3418 20.8018 23.0501 20.8018 22.6992C20.8018 22.3665 20.722 22.0749 20.5625 21.8242C20.403 21.569 20.1751 21.3958 19.8789 21.3047C19.5827 21.209 19.0745 21.1611 18.3545 21.1611H16.3516V24.1895ZM16.3516 28.8174H18.8467C19.2751 28.8174 19.5758 28.8014 19.749 28.7695C20.0544 28.7148 20.3096 28.6237 20.5146 28.4961C20.7197 28.3685 20.8883 28.1839 21.0205 27.9424C21.1527 27.6963 21.2188 27.4137 21.2188 27.0947C21.2188 26.721 21.123 26.3975 20.9316 26.124C20.7402 25.846 20.4736 25.6523 20.1318 25.543C19.7946 25.429 19.307 25.3721 18.6689 25.3721H16.3516V28.8174ZM29.2305 27.6621L30.502 27.8193C30.3014 28.5622 29.93 29.1387 29.3877 29.5488C28.8454 29.959 28.1527 30.1641 27.3096 30.1641C26.2477 30.1641 25.4046 29.8382 24.7803 29.1865C24.1605 28.5303 23.8506 27.612 23.8506 26.4316C23.8506 25.2103 24.165 24.2624 24.7939 23.5879C25.4229 22.9134 26.2386 22.5762 27.2412 22.5762C28.2119 22.5762 29.0049 22.9066 29.6201 23.5674C30.2354 24.2282 30.543 25.1579 30.543 26.3564C30.543 26.4294 30.5407 26.5387 30.5361 26.6846H25.1221C25.1676 27.4821 25.3932 28.0928 25.7988 28.5166C26.2044 28.9404 26.7103 29.1523 27.3164 29.1523C27.7676 29.1523 28.1527 29.0339 28.4717 28.7969C28.7907 28.5599 29.0436 28.1816 29.2305 27.6621ZM25.1904 25.6729H29.2441C29.1895 25.0622 29.0345 24.6042 28.7793 24.2988C28.3874 23.8249 27.8792 23.5879 27.2549 23.5879C26.6898 23.5879 26.2135 23.777 25.8262 24.1553C25.4434 24.5335 25.2314 25.0394 25.1904 25.6729ZM34.7402 28.8994L34.918 29.9863C34.5716 30.0592 34.2617 30.0957 33.9883 30.0957C33.5417 30.0957 33.1953 30.0251 32.9492 29.8838C32.7031 29.7425 32.5299 29.5579 32.4297 29.3301C32.3294 29.0977 32.2793 28.6123 32.2793 27.874V23.6973H31.377V22.7402H32.2793V20.9424L33.5029 20.2041V22.7402H34.7402V23.6973H33.5029V27.9424C33.5029 28.2933 33.5234 28.5189 33.5645 28.6191C33.61 28.7194 33.6807 28.7992 33.7764 28.8584C33.8766 28.9176 34.0179 28.9473 34.2002 28.9473C34.3369 28.9473 34.5169 28.9313 34.7402 28.8994ZM38.6367 28.8994L38.8145 29.9863C38.4681 30.0592 38.1582 30.0957 37.8848 30.0957C37.4382 30.0957 37.0918 30.0251 36.8457 29.8838C36.5996 29.7425 36.4264 29.5579 36.3262 29.3301C36.2259 29.0977 36.1758 28.6123 36.1758 27.874V23.6973H35.2734V22.7402H36.1758V20.9424L37.3994 20.2041V22.7402H38.6367V23.6973H37.3994V27.9424C37.3994 28.2933 37.4199 28.5189 37.4609 28.6191C37.5065 28.7194 37.5771 28.7992 37.6729 28.8584C37.7731 28.9176 37.9144 28.9473 38.0967 28.9473C38.2334 28.9473 38.4134 28.9313 38.6367 28.8994ZM44.8164 27.6621L46.0879 27.8193C45.8874 28.5622 45.516 29.1387 44.9736 29.5488C44.4313 29.959 43.7386 30.1641 42.8955 30.1641C41.8337 30.1641 40.9906 29.8382 40.3662 29.1865C39.7464 28.5303 39.4365 27.612 39.4365 26.4316C39.4365 25.2103 39.751 24.2624 40.3799 23.5879C41.0088 22.9134 41.8245 22.5762 42.8271 22.5762C43.7979 22.5762 44.5908 22.9066 45.2061 23.5674C45.8213 24.2282 46.1289 25.1579 46.1289 26.3564C46.1289 26.4294 46.1266 26.5387 46.1221 26.6846H40.708C40.7536 27.4821 40.9792 28.0928 41.3848 28.5166C41.7904 28.9404 42.2962 29.1523 42.9023 29.1523C43.3535 29.1523 43.7386 29.0339 44.0576 28.7969C44.3766 28.5599 44.6296 28.1816 44.8164 27.6621ZM40.7764 25.6729H44.8301C44.7754 25.0622 44.6204 24.6042 44.3652 24.2988C43.9733 23.8249 43.4652 23.5879 42.8408 23.5879C42.2757 23.5879 41.7995 23.777 41.4121 24.1553C41.0293 24.5335 40.8174 25.0394 40.7764 25.6729ZM47.626 30V22.7402H48.7334V23.8408C49.016 23.3258 49.2757 22.9863 49.5127 22.8223C49.7542 22.6582 50.0186 22.5762 50.3057 22.5762C50.7204 22.5762 51.1419 22.7083 51.5703 22.9727L51.1465 24.1143C50.8457 23.9365 50.5449 23.8477 50.2441 23.8477C49.9753 23.8477 49.7337 23.9297 49.5195 24.0938C49.3053 24.2533 49.1527 24.4766 49.0615 24.7637C48.9248 25.2012 48.8564 25.6797 48.8564 26.1992V30H47.626ZM55.9043 26.7803L57.1553 26.6709C57.2145 27.1722 57.3512 27.5846 57.5654 27.9082C57.7842 28.2272 58.1214 28.487 58.5771 28.6875C59.0329 28.8835 59.5456 28.9814 60.1152 28.9814C60.6211 28.9814 61.0677 28.9062 61.4551 28.7559C61.8424 28.6055 62.1296 28.4004 62.3164 28.1406C62.5078 27.8763 62.6035 27.5892 62.6035 27.2793C62.6035 26.9648 62.5124 26.6914 62.3301 26.459C62.1478 26.222 61.847 26.0238 61.4277 25.8643C61.1589 25.7594 60.5641 25.5977 59.6436 25.3789C58.723 25.1556 58.0781 24.946 57.709 24.75C57.2305 24.4993 56.8727 24.1895 56.6357 23.8203C56.4033 23.4466 56.2871 23.0296 56.2871 22.5693C56.2871 22.0635 56.4307 21.5918 56.7178 21.1543C57.0049 20.7122 57.4242 20.3773 57.9756 20.1494C58.527 19.9215 59.14 19.8076 59.8145 19.8076C60.5573 19.8076 61.2113 19.9284 61.7764 20.1699C62.346 20.4069 62.7835 20.7578 63.0889 21.2227C63.3942 21.6875 63.5583 22.2139 63.5811 22.8018L62.3096 22.8975C62.2412 22.264 62.0088 21.7855 61.6123 21.4619C61.2204 21.1383 60.6393 20.9766 59.8691 20.9766C59.0671 20.9766 58.4814 21.1247 58.1123 21.4209C57.7477 21.7126 57.5654 22.0658 57.5654 22.4805C57.5654 22.8405 57.6953 23.1367 57.9551 23.3691C58.2103 23.6016 58.8757 23.8408 59.9512 24.0869C61.0312 24.3285 61.7718 24.5404 62.1729 24.7227C62.7562 24.9915 63.1868 25.3333 63.4648 25.748C63.7428 26.1582 63.8818 26.6322 63.8818 27.1699C63.8818 27.7031 63.7292 28.2067 63.4238 28.6807C63.1185 29.1501 62.6787 29.5169 62.1045 29.7812C61.5348 30.041 60.8923 30.1709 60.1768 30.1709C59.2699 30.1709 58.5088 30.0387 57.8936 29.7744C57.2829 29.5101 56.8021 29.1136 56.4512 28.585C56.1048 28.0518 55.9225 27.4502 55.9043 26.7803ZM70.5059 27.6621L71.7773 27.8193C71.5768 28.5622 71.2054 29.1387 70.6631 29.5488C70.1208 29.959 69.4281 30.1641 68.585 30.1641C67.5231 30.1641 66.68 29.8382 66.0557 29.1865C65.4359 28.5303 65.126 27.612 65.126 26.4316C65.126 25.2103 65.4404 24.2624 66.0693 23.5879C66.6982 22.9134 67.514 22.5762 68.5166 22.5762C69.4873 22.5762 70.2803 22.9066 70.8955 23.5674C71.5107 24.2282 71.8184 25.1579 71.8184 26.3564C71.8184 26.4294 71.8161 26.5387 71.8115 26.6846H66.3975C66.443 27.4821 66.6686 28.0928 67.0742 28.5166C67.4798 28.9404 67.9857 29.1523 68.5918 29.1523C69.043 29.1523 69.4281 29.0339 69.7471 28.7969C70.0661 28.5599 70.319 28.1816 70.5059 27.6621ZM66.4658 25.6729H70.5195C70.4648 25.0622 70.3099 24.6042 70.0547 24.2988C69.6628 23.8249 69.1546 23.5879 68.5303 23.5879C67.9652 23.5879 67.4889 23.777 67.1016 24.1553C66.7188 24.5335 66.5068 25.0394 66.4658 25.6729ZM78.0664 29.1045C77.6107 29.4919 77.1709 29.7653 76.7471 29.9248C76.3278 30.0843 75.8766 30.1641 75.3936 30.1641C74.596 30.1641 73.9831 29.9704 73.5547 29.583C73.1263 29.1911 72.9121 28.6921 72.9121 28.0859C72.9121 27.7305 72.9919 27.4069 73.1514 27.1152C73.3154 26.819 73.5273 26.582 73.7871 26.4043C74.0514 26.2266 74.3477 26.0921 74.6758 26.001C74.9173 25.9372 75.2819 25.8757 75.7695 25.8164C76.763 25.6979 77.4945 25.5566 77.9639 25.3926C77.9684 25.224 77.9707 25.1169 77.9707 25.0713C77.9707 24.57 77.8545 24.2168 77.6221 24.0117C77.3076 23.7337 76.8405 23.5947 76.2207 23.5947C75.6419 23.5947 75.2135 23.6973 74.9355 23.9023C74.6621 24.1029 74.4593 24.4606 74.3271 24.9756L73.124 24.8115C73.2334 24.2965 73.4134 23.8818 73.6641 23.5674C73.9147 23.2484 74.277 23.0046 74.751 22.8359C75.2249 22.6628 75.7741 22.5762 76.3984 22.5762C77.0182 22.5762 77.5218 22.6491 77.9092 22.7949C78.2965 22.9408 78.5814 23.1253 78.7637 23.3486C78.946 23.5674 79.0736 23.8454 79.1465 24.1826C79.1875 24.3923 79.208 24.7705 79.208 25.3174V26.958C79.208 28.1019 79.2331 28.8265 79.2832 29.1318C79.3379 29.4326 79.4427 29.722 79.5977 30H78.3125C78.1849 29.7448 78.1029 29.4463 78.0664 29.1045ZM77.9639 26.3564C77.5173 26.5387 76.8473 26.6937 75.9541 26.8213C75.4482 26.8942 75.0905 26.9762 74.8809 27.0674C74.6712 27.1585 74.5094 27.293 74.3955 27.4707C74.2816 27.6439 74.2246 27.8376 74.2246 28.0518C74.2246 28.3799 74.3477 28.6533 74.5938 28.8721C74.8444 29.0908 75.209 29.2002 75.6875 29.2002C76.1615 29.2002 76.583 29.0977 76.9521 28.8926C77.3213 28.6829 77.5924 28.3981 77.7656 28.0381C77.8978 27.7601 77.9639 27.3499 77.9639 26.8076V26.3564ZM81.1084 30V22.7402H82.2158V23.8408C82.4984 23.3258 82.7581 22.9863 82.9951 22.8223C83.2367 22.6582 83.501 22.5762 83.7881 22.5762C84.2028 22.5762 84.6243 22.7083 85.0527 22.9727L84.6289 24.1143C84.3281 23.9365 84.0273 23.8477 83.7266 23.8477C83.4577 23.8477 83.2161 23.9297 83.002 24.0938C82.7878 24.2533 82.6351 24.4766 82.5439 24.7637C82.4072 25.2012 82.3389 25.6797 82.3389 26.1992V30H81.1084ZM90.5215 27.3408L91.7314 27.498C91.5993 28.332 91.2598 28.986 90.7129 29.46C90.1706 29.9294 89.5029 30.1641 88.71 30.1641C87.7165 30.1641 86.9167 29.8405 86.3105 29.1934C85.709 28.5417 85.4082 27.6097 85.4082 26.3975C85.4082 25.6136 85.5381 24.9277 85.7979 24.3398C86.0576 23.752 86.4518 23.3122 86.9805 23.0205C87.5137 22.7243 88.0924 22.5762 88.7168 22.5762C89.5052 22.5762 90.1501 22.7767 90.6514 23.1777C91.1527 23.5742 91.474 24.1393 91.6152 24.873L90.4189 25.0576C90.305 24.57 90.1022 24.2031 89.8105 23.957C89.5234 23.7109 89.1748 23.5879 88.7646 23.5879C88.1449 23.5879 87.6413 23.8112 87.2539 24.2578C86.8665 24.6999 86.6729 25.4017 86.6729 26.3633C86.6729 27.3385 86.8597 28.0472 87.2334 28.4893C87.6071 28.9313 88.0947 29.1523 88.6963 29.1523C89.1794 29.1523 89.5827 29.0042 89.9062 28.708C90.2298 28.4118 90.4349 27.9561 90.5215 27.3408ZM92.7842 30V19.9785H94.0146V23.5742C94.5889 22.9089 95.3135 22.5762 96.1885 22.5762C96.7262 22.5762 97.1934 22.6833 97.5898 22.8975C97.9863 23.1071 98.2689 23.3988 98.4375 23.7725C98.6107 24.1462 98.6973 24.6885 98.6973 25.3994V30H97.4668V25.3994C97.4668 24.7842 97.3324 24.3376 97.0635 24.0596C96.7992 23.777 96.4232 23.6357 95.9355 23.6357C95.571 23.6357 95.2269 23.7314 94.9033 23.9229C94.5843 24.1097 94.3564 24.3649 94.2197 24.6885C94.083 25.012 94.0146 25.4587 94.0146 26.0283V30H92.7842ZM104.651 30V19.9785H109.095C109.988 19.9785 110.667 20.0697 111.132 20.252C111.597 20.4297 111.968 20.7464 112.246 21.2021C112.524 21.6579 112.663 22.1615 112.663 22.7129C112.663 23.4238 112.433 24.0231 111.973 24.5107C111.512 24.9984 110.801 25.3083 109.84 25.4404C110.191 25.609 110.457 25.7754 110.64 25.9395C111.027 26.2949 111.394 26.7393 111.74 27.2725L113.483 30H111.815L110.489 27.915C110.102 27.3135 109.783 26.8532 109.532 26.5342C109.282 26.2152 109.056 25.9919 108.855 25.8643C108.66 25.7367 108.459 25.6478 108.254 25.5977C108.104 25.5658 107.857 25.5498 107.516 25.5498H105.978V30H104.651ZM105.978 24.4014H108.828C109.434 24.4014 109.908 24.3398 110.25 24.2168C110.592 24.0892 110.852 23.8887 111.029 23.6152C111.207 23.3372 111.296 23.0365 111.296 22.7129C111.296 22.2389 111.123 21.8493 110.776 21.5439C110.435 21.2386 109.892 21.0859 109.149 21.0859H105.978V24.4014ZM119.561 27.6621L120.832 27.8193C120.632 28.5622 120.26 29.1387 119.718 29.5488C119.175 29.959 118.483 30.1641 117.64 30.1641C116.578 30.1641 115.735 29.8382 115.11 29.1865C114.491 28.5303 114.181 27.612 114.181 26.4316C114.181 25.2103 114.495 24.2624 115.124 23.5879C115.753 22.9134 116.569 22.5762 117.571 22.5762C118.542 22.5762 119.335 22.9066 119.95 23.5674C120.565 24.2282 120.873 25.1579 120.873 26.3564C120.873 26.4294 120.871 26.5387 120.866 26.6846H115.452C115.498 27.4821 115.723 28.0928 116.129 28.5166C116.535 28.9404 117.04 29.1523 117.646 29.1523C118.098 29.1523 118.483 29.0339 118.802 28.7969C119.121 28.5599 119.374 28.1816 119.561 27.6621ZM115.521 25.6729H119.574C119.52 25.0622 119.365 24.6042 119.109 24.2988C118.717 23.8249 118.209 23.5879 117.585 23.5879C117.02 23.5879 116.544 23.777 116.156 24.1553C115.773 24.5335 115.562 25.0394 115.521 25.6729ZM121.892 27.833L123.108 27.6416C123.177 28.1292 123.366 28.5029 123.676 28.7627C123.99 29.0225 124.428 29.1523 124.988 29.1523C125.553 29.1523 125.973 29.0384 126.246 28.8105C126.52 28.5781 126.656 28.307 126.656 27.9971C126.656 27.7191 126.535 27.5003 126.294 27.3408C126.125 27.2314 125.706 27.0924 125.036 26.9238C124.134 26.696 123.507 26.5 123.156 26.3359C122.81 26.1673 122.546 25.9372 122.363 25.6455C122.186 25.3493 122.097 25.0234 122.097 24.668C122.097 24.3444 122.17 24.0459 122.315 23.7725C122.466 23.4945 122.669 23.2643 122.924 23.082C123.115 22.9408 123.375 22.8223 123.703 22.7266C124.036 22.6263 124.391 22.5762 124.77 22.5762C125.339 22.5762 125.838 22.6582 126.267 22.8223C126.7 22.9863 127.019 23.2096 127.224 23.4922C127.429 23.7702 127.57 24.1439 127.647 24.6133L126.444 24.7773C126.39 24.4036 126.23 24.112 125.966 23.9023C125.706 23.6927 125.337 23.5879 124.858 23.5879C124.293 23.5879 123.89 23.6813 123.648 23.8682C123.407 24.055 123.286 24.2738 123.286 24.5244C123.286 24.6839 123.336 24.8275 123.437 24.9551C123.537 25.0872 123.694 25.1966 123.908 25.2832C124.031 25.3288 124.394 25.4336 124.995 25.5977C125.866 25.8301 126.472 26.0215 126.813 26.1719C127.16 26.3177 127.431 26.5319 127.627 26.8145C127.823 27.097 127.921 27.4479 127.921 27.8672C127.921 28.2773 127.8 28.6647 127.559 29.0293C127.322 29.3893 126.978 29.6696 126.526 29.8701C126.075 30.0661 125.565 30.1641 124.995 30.1641C124.052 30.1641 123.332 29.9681 122.835 29.5762C122.343 29.1842 122.028 28.6032 121.892 27.833ZM134.142 30V28.9336C133.576 29.7539 132.809 30.1641 131.838 30.1641C131.41 30.1641 131.008 30.082 130.635 29.918C130.266 29.7539 129.99 29.5488 129.808 29.3027C129.63 29.0521 129.505 28.7467 129.432 28.3867C129.382 28.1452 129.356 27.7624 129.356 27.2383V22.7402H130.587V26.7666C130.587 27.4092 130.612 27.8421 130.662 28.0654C130.74 28.389 130.904 28.6442 131.154 28.8311C131.405 29.0133 131.715 29.1045 132.084 29.1045C132.453 29.1045 132.799 29.0111 133.123 28.8242C133.447 28.6328 133.674 28.3753 133.807 28.0518C133.943 27.7236 134.012 27.2497 134.012 26.6299V22.7402H135.242V30H134.142ZM137.149 30V19.9785H138.38V30H137.149ZM142.98 28.8994L143.158 29.9863C142.812 30.0592 142.502 30.0957 142.229 30.0957C141.782 30.0957 141.436 30.0251 141.189 29.8838C140.943 29.7425 140.77 29.5579 140.67 29.3301C140.57 29.0977 140.52 28.6123 140.52 27.874V23.6973H139.617V22.7402H140.52V20.9424L141.743 20.2041V22.7402H142.98V23.6973H141.743V27.9424C141.743 28.2933 141.764 28.5189 141.805 28.6191C141.85 28.7194 141.921 28.7992 142.017 28.8584C142.117 28.9176 142.258 28.9473 142.44 28.9473C142.577 28.9473 142.757 28.9313 142.98 28.8994ZM143.698 27.833L144.915 27.6416C144.983 28.1292 145.173 28.5029 145.482 28.7627C145.797 29.0225 146.234 29.1523 146.795 29.1523C147.36 29.1523 147.779 29.0384 148.053 28.8105C148.326 28.5781 148.463 28.307 148.463 27.9971C148.463 27.7191 148.342 27.5003 148.101 27.3408C147.932 27.2314 147.513 27.0924 146.843 26.9238C145.94 26.696 145.314 26.5 144.963 26.3359C144.617 26.1673 144.352 25.9372 144.17 25.6455C143.992 25.3493 143.903 25.0234 143.903 24.668C143.903 24.3444 143.976 24.0459 144.122 23.7725C144.272 23.4945 144.475 23.2643 144.73 23.082C144.922 22.9408 145.182 22.8223 145.51 22.7266C145.842 22.6263 146.198 22.5762 146.576 22.5762C147.146 22.5762 147.645 22.6582 148.073 22.8223C148.506 22.9863 148.825 23.2096 149.03 23.4922C149.235 23.7702 149.377 24.1439 149.454 24.6133L148.251 24.7773C148.196 24.4036 148.037 24.112 147.772 23.9023C147.513 23.6927 147.144 23.5879 146.665 23.5879C146.1 23.5879 145.697 23.6813 145.455 23.8682C145.214 24.055 145.093 24.2738 145.093 24.5244C145.093 24.6839 145.143 24.8275 145.243 24.9551C145.343 25.0872 145.501 25.1966 145.715 25.2832C145.838 25.3288 146.2 25.4336 146.802 25.5977C147.672 25.8301 148.278 26.0215 148.62 26.1719C148.966 26.3177 149.238 26.5319 149.434 26.8145C149.63 27.097 149.728 27.4479 149.728 27.8672C149.728 28.2773 149.607 28.6647 149.365 29.0293C149.128 29.3893 148.784 29.6696 148.333 29.8701C147.882 30.0661 147.371 30.1641 146.802 30.1641C145.858 30.1641 145.138 29.9681 144.642 29.5762C144.149 29.1842 143.835 28.6032 143.698 27.833Z" fill="#1A0DAB"/>
<path d="M13.9824 48L17.2812 39.4102H18.5059L22.0215 48H20.7266L19.7246 45.3984H16.1328L15.1895 48H13.9824ZM16.4609 44.4727H19.373L18.4766 42.0938C18.2031 41.3711 18 40.7773 17.8672 40.3125C17.7578 40.8633 17.6035 41.4102 17.4043 41.9531L16.4609 44.4727ZM22.7949 48V41.7773H23.7441V42.6621C24.2012 41.9785 24.8613 41.6367 25.7246 41.6367C26.0996 41.6367 26.4434 41.7051 26.7559 41.8418C27.0723 41.9746 27.3086 42.1504 27.4648 42.3691C27.6211 42.5879 27.7305 42.8477 27.793 43.1484C27.832 43.3438 27.8516 43.6855 27.8516 44.1738V48H26.7969V44.2148C26.7969 43.7852 26.7559 43.4648 26.6738 43.2539C26.5918 43.0391 26.4453 42.8691 26.2344 42.7441C26.0273 42.6152 25.7832 42.5508 25.502 42.5508C25.0527 42.5508 24.6641 42.6934 24.3359 42.9785C24.0117 43.2637 23.8496 43.8047 23.8496 44.6016V48H22.7949ZM29.0527 46.1426L30.0957 45.9785C30.1543 46.3965 30.3164 46.7168 30.582 46.9395C30.8516 47.1621 31.2266 47.2734 31.707 47.2734C32.1914 47.2734 32.5508 47.1758 32.7852 46.9805C33.0195 46.7812 33.1367 46.5488 33.1367 46.2832C33.1367 46.0449 33.0332 45.8574 32.8262 45.7207C32.6816 45.627 32.3223 45.5078 31.748 45.3633C30.9746 45.168 30.4375 45 30.1367 44.8594C29.8398 44.7148 29.6133 44.5176 29.457 44.2676C29.3047 44.0137 29.2285 43.7344 29.2285 43.4297C29.2285 43.1523 29.291 42.8965 29.416 42.6621C29.5449 42.4238 29.7188 42.2266 29.9375 42.0703C30.1016 41.9492 30.3242 41.8477 30.6055 41.7656C30.8906 41.6797 31.1953 41.6367 31.5195 41.6367C32.0078 41.6367 32.4355 41.707 32.8027 41.8477C33.1738 41.9883 33.4473 42.1797 33.623 42.4219C33.7988 42.6602 33.9199 42.9805 33.9863 43.3828L32.9551 43.5234C32.9082 43.2031 32.7715 42.9531 32.5449 42.7734C32.3223 42.5938 32.0059 42.5039 31.5957 42.5039C31.1113 42.5039 30.7656 42.584 30.5586 42.7441C30.3516 42.9043 30.248 43.0918 30.248 43.3066C30.248 43.4434 30.291 43.5664 30.377 43.6758C30.4629 43.7891 30.5977 43.8828 30.7812 43.957C30.8867 43.9961 31.1973 44.0859 31.7129 44.2266C32.459 44.4258 32.9785 44.5898 33.2715 44.7188C33.5684 44.8438 33.8008 45.0273 33.9688 45.2695C34.1367 45.5117 34.2207 45.8125 34.2207 46.1719C34.2207 46.5234 34.1172 46.8555 33.9102 47.168C33.707 47.4766 33.4121 47.7168 33.0254 47.8887C32.6387 48.0566 32.2012 48.1406 31.7129 48.1406C30.9043 48.1406 30.2871 47.9727 29.8613 47.6367C29.4395 47.3008 29.1699 46.8027 29.0527 46.1426ZM36.623 48L34.7188 41.7773H35.8086L36.7988 45.3691L37.168 46.7051C37.1836 46.6387 37.291 46.2109 37.4902 45.4219L38.4805 41.7773H39.5645L40.4961 45.3867L40.8066 46.5762L41.1641 45.375L42.2305 41.7773H43.2559L41.3105 48H40.2148L39.2246 44.2734L38.9844 43.2129L37.7246 48H36.623ZM48.4062 45.9961L49.4961 46.1309C49.3242 46.7676 49.0059 47.2617 48.541 47.6133C48.0762 47.9648 47.4824 48.1406 46.7598 48.1406C45.8496 48.1406 45.127 47.8613 44.5918 47.3027C44.0605 46.7402 43.7949 45.9531 43.7949 44.9414C43.7949 43.8945 44.0645 43.082 44.6035 42.5039C45.1426 41.9258 45.8418 41.6367 46.7012 41.6367C47.5332 41.6367 48.2129 41.9199 48.7402 42.4863C49.2676 43.0527 49.5312 43.8496 49.5312 44.877C49.5312 44.9395 49.5293 45.0332 49.5254 45.1582H44.8848C44.9238 45.8418 45.1172 46.3652 45.4648 46.7285C45.8125 47.0918 46.2461 47.2734 46.7656 47.2734C47.1523 47.2734 47.4824 47.1719 47.7559 46.9688C48.0293 46.7656 48.2461 46.4414 48.4062 45.9961ZM44.9434 44.291H48.418C48.3711 43.7676 48.2383 43.375 48.0195 43.1133C47.6836 42.707 47.248 42.5039 46.7129 42.5039C46.2285 42.5039 45.8203 42.666 45.4883 42.9902C45.1602 43.3145 44.9785 43.748 44.9434 44.291ZM50.8145 48V41.7773H51.7637V42.7207C52.0059 42.2793 52.2285 41.9883 52.4316 41.8477C52.6387 41.707 52.8652 41.6367 53.1113 41.6367C53.4668 41.6367 53.8281 41.75 54.1953 41.9766L53.832 42.9551C53.5742 42.8027 53.3164 42.7266 53.0586 42.7266C52.8281 42.7266 52.6211 42.7969 52.4375 42.9375C52.2539 43.0742 52.123 43.2656 52.0449 43.5117C51.9277 43.8867 51.8691 44.2969 51.8691 44.7422V48H50.8145ZM54.4004 46.1426L55.4434 45.9785C55.502 46.3965 55.6641 46.7168 55.9297 46.9395C56.1992 47.1621 56.5742 47.2734 57.0547 47.2734C57.5391 47.2734 57.8984 47.1758 58.1328 46.9805C58.3672 46.7812 58.4844 46.5488 58.4844 46.2832C58.4844 46.0449 58.3809 45.8574 58.1738 45.7207C58.0293 45.627 57.6699 45.5078 57.0957 45.3633C56.3223 45.168 55.7852 45 55.4844 44.8594C55.1875 44.7148 54.9609 44.5176 54.8047 44.2676C54.6523 44.0137 54.5762 43.7344 54.5762 43.4297C54.5762 43.1523 54.6387 42.8965 54.7637 42.6621C54.8926 42.4238 55.0664 42.2266 55.2852 42.0703C55.4492 41.9492 55.6719 41.8477 55.9531 41.7656C56.2383 41.6797 56.543 41.6367 56.8672 41.6367C57.3555 41.6367 57.7832 41.707 58.1504 41.8477C58.5215 41.9883 58.7949 42.1797 58.9707 42.4219C59.1465 42.6602 59.2676 42.9805 59.334 43.3828L58.3027 43.5234C58.2559 43.2031 58.1191 42.9531 57.8926 42.7734C57.6699 42.5938 57.3535 42.5039 56.9434 42.5039C56.459 42.5039 56.1133 42.584 55.9062 42.7441C55.6992 42.9043 55.5957 43.0918 55.5957 43.3066C55.5957 43.4434 55.6387 43.5664 55.7246 43.6758C55.8105 43.7891 55.9453 43.8828 56.1289 43.957C56.2344 43.9961 56.5449 44.0859 57.0605 44.2266C57.8066 44.4258 58.3262 44.5898 58.6191 44.7188C58.916 44.8438 59.1484 45.0273 59.3164 45.2695C59.4844 45.5117 59.5684 45.8125 59.5684 46.1719C59.5684 46.5234 59.4648 46.8555 59.2578 47.168C59.0547 47.4766 58.7598 47.7168 58.373 47.8887C57.9863 48.0566 57.5488 48.1406 57.0605 48.1406C56.252 48.1406 55.6348 47.9727 55.209 47.6367C54.7871 47.3008 54.5176 46.8027 54.4004 46.1426ZM66.4648 47.0566L66.6172 47.9883C66.3203 48.0508 66.0547 48.082 65.8203 48.082C65.4375 48.082 65.1406 48.0215 64.9297 47.9004C64.7188 47.7793 64.5703 47.6211 64.4844 47.4258C64.3984 47.2266 64.3555 46.8105 64.3555 46.1777V42.5977H63.582V41.7773H64.3555V40.2363L65.4043 39.6035V41.7773H66.4648V42.5977H65.4043V46.2363C65.4043 46.5371 65.4219 46.7305 65.457 46.8164C65.4961 46.9023 65.5566 46.9707 65.6387 47.0215C65.7246 47.0723 65.8457 47.0977 66.002 47.0977C66.1191 47.0977 66.2734 47.084 66.4648 47.0566ZM67.502 48V39.4102H68.5566V42.4922C69.0488 41.9219 69.6699 41.6367 70.4199 41.6367C70.8809 41.6367 71.2812 41.7285 71.6211 41.9121C71.9609 42.0918 72.2031 42.3418 72.3477 42.6621C72.4961 42.9824 72.5703 43.4473 72.5703 44.0566V48H71.5156V44.0566C71.5156 43.5293 71.4004 43.1465 71.1699 42.9082C70.9434 42.666 70.6211 42.5449 70.2031 42.5449C69.8906 42.5449 69.5957 42.627 69.3184 42.791C69.0449 42.9512 68.8496 43.1699 68.7324 43.4473C68.6152 43.7246 68.5566 44.1074 68.5566 44.5957V48H67.502ZM78.2422 47.2324C77.8516 47.5645 77.4746 47.7988 77.1113 47.9355C76.752 48.0723 76.3652 48.1406 75.9512 48.1406C75.2676 48.1406 74.7422 47.9746 74.375 47.6426C74.0078 47.3066 73.8242 46.8789 73.8242 46.3594C73.8242 46.0547 73.8926 45.7773 74.0293 45.5273C74.1699 45.2734 74.3516 45.0703 74.5742 44.918C74.8008 44.7656 75.0547 44.6504 75.3359 44.5723C75.543 44.5176 75.8555 44.4648 76.2734 44.4141C77.125 44.3125 77.752 44.1914 78.1543 44.0508C78.1582 43.9062 78.1602 43.8145 78.1602 43.7754C78.1602 43.3457 78.0605 43.043 77.8613 42.8672C77.5918 42.6289 77.1914 42.5098 76.6602 42.5098C76.1641 42.5098 75.7969 42.5977 75.5586 42.7734C75.3242 42.9453 75.1504 43.252 75.0371 43.6934L74.0059 43.5527C74.0996 43.1113 74.2539 42.7559 74.4688 42.4863C74.6836 42.2129 74.9941 42.0039 75.4004 41.8594C75.8066 41.7109 76.2773 41.6367 76.8125 41.6367C77.3438 41.6367 77.7754 41.6992 78.1074 41.8242C78.4395 41.9492 78.6836 42.1074 78.8398 42.2988C78.9961 42.4863 79.1055 42.7246 79.168 43.0137C79.2031 43.1934 79.2207 43.5176 79.2207 43.9863V45.3926C79.2207 46.373 79.2422 46.9941 79.2852 47.2559C79.332 47.5137 79.4219 47.7617 79.5547 48H78.4531C78.3438 47.7812 78.2734 47.5254 78.2422 47.2324ZM78.1543 44.877C77.7715 45.0332 77.1973 45.166 76.4316 45.2754C75.998 45.3379 75.6914 45.4082 75.5117 45.4863C75.332 45.5645 75.1934 45.6797 75.0957 45.832C74.998 45.9805 74.9492 46.1465 74.9492 46.3301C74.9492 46.6113 75.0547 46.8457 75.2656 47.0332C75.4805 47.2207 75.793 47.3145 76.2031 47.3145C76.6094 47.3145 76.9707 47.2266 77.2871 47.0508C77.6035 46.8711 77.8359 46.627 77.9844 46.3184C78.0977 46.0801 78.1543 45.7285 78.1543 45.2637V44.877ZM83.1641 47.0566L83.3164 47.9883C83.0195 48.0508 82.7539 48.082 82.5195 48.082C82.1367 48.082 81.8398 48.0215 81.6289 47.9004C81.418 47.7793 81.2695 47.6211 81.1836 47.4258C81.0977 47.2266 81.0547 46.8105 81.0547 46.1777V42.5977H80.2812V41.7773H81.0547V40.2363L82.1035 39.6035V41.7773H83.1641V42.5977H82.1035V46.2363C82.1035 46.5371 82.1211 46.7305 82.1562 46.8164C82.1953 46.9023 82.2559 46.9707 82.3379 47.0215C82.4238 47.0723 82.5449 47.0977 82.7012 47.0977C82.8184 47.0977 82.9727 47.084 83.1641 47.0566ZM87.4941 50.3965L87.377 49.4062C87.6074 49.4688 87.8086 49.5 87.9805 49.5C88.2148 49.5 88.4023 49.4609 88.543 49.3828C88.6836 49.3047 88.7988 49.1953 88.8887 49.0547C88.9551 48.9492 89.0625 48.6875 89.2109 48.2695C89.2305 48.2109 89.2617 48.125 89.3047 48.0117L86.9434 41.7773H88.0801L89.375 45.3809C89.543 45.8379 89.6934 46.3184 89.8262 46.8223C89.9473 46.3379 90.0918 45.8652 90.2598 45.4043L91.5898 41.7773H92.6445L90.2773 48.1055C90.0234 48.7891 89.8262 49.2598 89.6855 49.5176C89.498 49.8652 89.2832 50.1191 89.041 50.2793C88.7988 50.4434 88.5098 50.5254 88.1738 50.5254C87.9707 50.5254 87.7441 50.4824 87.4941 50.3965ZM93.1484 44.8887C93.1484 43.7363 93.4688 42.8828 94.1094 42.3281C94.6445 41.8672 95.2969 41.6367 96.0664 41.6367C96.9219 41.6367 97.6211 41.918 98.1641 42.4805C98.707 43.0391 98.9785 43.8125 98.9785 44.8008C98.9785 45.6016 98.8574 46.2324 98.6152 46.6934C98.377 47.1504 98.0273 47.5059 97.5664 47.7598C97.1094 48.0137 96.6094 48.1406 96.0664 48.1406C95.1953 48.1406 94.4902 47.8613 93.9512 47.3027C93.416 46.7441 93.1484 45.9395 93.1484 44.8887ZM94.2324 44.8887C94.2324 45.6855 94.4062 46.2832 94.7539 46.6816C95.1016 47.0762 95.5391 47.2734 96.0664 47.2734C96.5898 47.2734 97.0254 47.0742 97.373 46.6758C97.7207 46.2773 97.8945 45.6699 97.8945 44.8535C97.8945 44.084 97.7188 43.502 97.3672 43.1074C97.0195 42.709 96.5859 42.5098 96.0664 42.5098C95.5391 42.5098 95.1016 42.707 94.7539 43.1016C94.4062 43.4961 94.2324 44.0918 94.2324 44.8887ZM104.299 48V47.0859C103.814 47.7891 103.156 48.1406 102.324 48.1406C101.957 48.1406 101.613 48.0703 101.293 47.9297C100.977 47.7891 100.74 47.6133 100.584 47.4023C100.432 47.1875 100.324 46.9258 100.262 46.6172C100.219 46.4102 100.197 46.082 100.197 45.6328V41.7773H101.252V45.2285C101.252 45.7793 101.273 46.1504 101.316 46.3418C101.383 46.6191 101.523 46.8379 101.738 46.998C101.953 47.1543 102.219 47.2324 102.535 47.2324C102.852 47.2324 103.148 47.1523 103.426 46.9922C103.703 46.8281 103.898 46.6074 104.012 46.3301C104.129 46.0488 104.188 45.6426 104.188 45.1113V41.7773H105.242V48H104.299ZM114.301 47.2324C113.91 47.5645 113.533 47.7988 113.17 47.9355C112.811 48.0723 112.424 48.1406 112.01 48.1406C111.326 48.1406 110.801 47.9746 110.434 47.6426C110.066 47.3066 109.883 46.8789 109.883 46.3594C109.883 46.0547 109.951 45.7773 110.088 45.5273C110.229 45.2734 110.41 45.0703 110.633 44.918C110.859 44.7656 111.113 44.6504 111.395 44.5723C111.602 44.5176 111.914 44.4648 112.332 44.4141C113.184 44.3125 113.811 44.1914 114.213 44.0508C114.217 43.9062 114.219 43.8145 114.219 43.7754C114.219 43.3457 114.119 43.043 113.92 42.8672C113.65 42.6289 113.25 42.5098 112.719 42.5098C112.223 42.5098 111.855 42.5977 111.617 42.7734C111.383 42.9453 111.209 43.252 111.096 43.6934L110.064 43.5527C110.158 43.1113 110.312 42.7559 110.527 42.4863C110.742 42.2129 111.053 42.0039 111.459 41.8594C111.865 41.7109 112.336 41.6367 112.871 41.6367C113.402 41.6367 113.834 41.6992 114.166 41.8242C114.498 41.9492 114.742 42.1074 114.898 42.2988C115.055 42.4863 115.164 42.7246 115.227 43.0137C115.262 43.1934 115.279 43.5176 115.279 43.9863V45.3926C115.279 46.373 115.301 46.9941 115.344 47.2559C115.391 47.5137 115.48 47.7617 115.613 48H114.512C114.402 47.7812 114.332 47.5254 114.301 47.2324ZM114.213 44.877C113.83 45.0332 113.256 45.166 112.49 45.2754C112.057 45.3379 111.75 45.4082 111.57 45.4863C111.391 45.5645 111.252 45.6797 111.154 45.832C111.057 45.9805 111.008 46.1465 111.008 46.3301C111.008 46.6113 111.113 46.8457 111.324 47.0332C111.539 47.2207 111.852 47.3145 112.262 47.3145C112.668 47.3145 113.029 47.2266 113.346 47.0508C113.662 46.8711 113.895 46.627 114.043 46.3184C114.156 46.0801 114.213 45.7285 114.213 45.2637V44.877ZM116.908 48V41.7773H117.857V42.7207C118.1 42.2793 118.322 41.9883 118.525 41.8477C118.732 41.707 118.959 41.6367 119.205 41.6367C119.561 41.6367 119.922 41.75 120.289 41.9766L119.926 42.9551C119.668 42.8027 119.41 42.7266 119.152 42.7266C118.922 42.7266 118.715 42.7969 118.531 42.9375C118.348 43.0742 118.217 43.2656 118.139 43.5117C118.021 43.8867 117.963 44.2969 117.963 44.7422V48H116.908ZM125.176 45.9961L126.266 46.1309C126.094 46.7676 125.775 47.2617 125.311 47.6133C124.846 47.9648 124.252 48.1406 123.529 48.1406C122.619 48.1406 121.896 47.8613 121.361 47.3027C120.83 46.7402 120.564 45.9531 120.564 44.9414C120.564 43.8945 120.834 43.082 121.373 42.5039C121.912 41.9258 122.611 41.6367 123.471 41.6367C124.303 41.6367 124.982 41.9199 125.51 42.4863C126.037 43.0527 126.301 43.8496 126.301 44.877C126.301 44.9395 126.299 45.0332 126.295 45.1582H121.654C121.693 45.8418 121.887 46.3652 122.234 46.7285C122.582 47.0918 123.016 47.2734 123.535 47.2734C123.922 47.2734 124.252 47.1719 124.525 46.9688C124.799 46.7656 125.016 46.4414 125.176 45.9961ZM121.713 44.291H125.188C125.141 43.7676 125.008 43.375 124.789 43.1133C124.453 42.707 124.018 42.5039 123.482 42.5039C122.998 42.5039 122.59 42.666 122.258 42.9902C121.93 43.3145 121.748 43.748 121.713 44.291ZM130.912 48V39.4102H131.967V48H130.912ZM133.215 44.8887C133.215 43.7363 133.535 42.8828 134.176 42.3281C134.711 41.8672 135.363 41.6367 136.133 41.6367C136.988 41.6367 137.688 41.918 138.23 42.4805C138.773 43.0391 139.045 43.8125 139.045 44.8008C139.045 45.6016 138.924 46.2324 138.682 46.6934C138.443 47.1504 138.094 47.5059 137.633 47.7598C137.176 48.0137 136.676 48.1406 136.133 48.1406C135.262 48.1406 134.557 47.8613 134.018 47.3027C133.482 46.7441 133.215 45.9395 133.215 44.8887ZM134.299 44.8887C134.299 45.6855 134.473 46.2832 134.82 46.6816C135.168 47.0762 135.605 47.2734 136.133 47.2734C136.656 47.2734 137.092 47.0742 137.439 46.6758C137.787 46.2773 137.961 45.6699 137.961 44.8535C137.961 44.084 137.785 43.502 137.434 43.1074C137.086 42.709 136.652 42.5098 136.133 42.5098C135.605 42.5098 135.168 42.707 134.82 43.1016C134.473 43.4961 134.299 44.0918 134.299 44.8887ZM139.895 44.8887C139.895 43.7363 140.215 42.8828 140.855 42.3281C141.391 41.8672 142.043 41.6367 142.812 41.6367C143.668 41.6367 144.367 41.918 144.91 42.4805C145.453 43.0391 145.725 43.8125 145.725 44.8008C145.725 45.6016 145.604 46.2324 145.361 46.6934C145.123 47.1504 144.773 47.5059 144.312 47.7598C143.855 48.0137 143.355 48.1406 142.812 48.1406C141.941 48.1406 141.236 47.8613 140.697 47.3027C140.162 46.7441 139.895 45.9395 139.895 44.8887ZM140.979 44.8887C140.979 45.6855 141.152 46.2832 141.5 46.6816C141.848 47.0762 142.285 47.2734 142.812 47.2734C143.336 47.2734 143.771 47.0742 144.119 46.6758C144.467 46.2773 144.641 45.6699 144.641 44.8535C144.641 44.084 144.465 43.502 144.113 43.1074C143.766 42.709 143.332 42.5098 142.812 42.5098C142.285 42.5098 141.848 42.707 141.5 43.1016C141.152 43.4961 140.979 44.0918 140.979 44.8887ZM146.973 48V39.4102H148.027V44.3086L150.523 41.7773H151.889L149.51 44.0859L152.129 48H150.828L148.771 44.8184L148.027 45.5332V48H146.973ZM152.973 40.623V39.4102H154.027V40.623H152.973ZM152.973 48V41.7773H154.027V48H152.973ZM155.639 48V41.7773H156.588V42.6621C157.045 41.9785 157.705 41.6367 158.568 41.6367C158.943 41.6367 159.287 41.7051 159.6 41.8418C159.916 41.9746 160.152 42.1504 160.309 42.3691C160.465 42.5879 160.574 42.8477 160.637 43.1484C160.676 43.3438 160.695 43.6855 160.695 44.1738V48H159.641V44.2148C159.641 43.7852 159.6 43.4648 159.518 43.2539C159.436 43.0391 159.289 42.8691 159.078 42.7441C158.871 42.6152 158.627 42.5508 158.346 42.5508C157.896 42.5508 157.508 42.6934 157.18 42.9785C156.855 43.2637 156.693 43.8047 156.693 44.6016V48H155.639ZM162.125 48.5156L163.15 48.668C163.193 48.9844 163.312 49.2148 163.508 49.3594C163.77 49.5547 164.127 49.6523 164.58 49.6523C165.068 49.6523 165.445 49.5547 165.711 49.3594C165.977 49.1641 166.156 48.8906 166.25 48.5391C166.305 48.3242 166.33 47.873 166.326 47.1855C165.865 47.7285 165.291 48 164.604 48C163.748 48 163.086 47.6914 162.617 47.0742C162.148 46.457 161.914 45.7168 161.914 44.8535C161.914 44.2598 162.021 43.7129 162.236 43.2129C162.451 42.709 162.762 42.3203 163.168 42.0469C163.578 41.7734 164.059 41.6367 164.609 41.6367C165.344 41.6367 165.949 41.9336 166.426 42.5273V41.7773H167.398V47.1562C167.398 48.125 167.299 48.8105 167.1 49.2129C166.904 49.6191 166.592 49.9395 166.162 50.1738C165.736 50.4082 165.211 50.5254 164.586 50.5254C163.844 50.5254 163.244 50.3574 162.787 50.0215C162.33 49.6895 162.109 49.1875 162.125 48.5156ZM162.998 44.7773C162.998 45.5938 163.16 46.1895 163.484 46.5645C163.809 46.9395 164.215 47.127 164.703 47.127C165.188 47.127 165.594 46.9414 165.922 46.5703C166.25 46.1953 166.414 45.6094 166.414 44.8125C166.414 44.0508 166.244 43.4766 165.904 43.0898C165.568 42.7031 165.162 42.5098 164.686 42.5098C164.217 42.5098 163.818 42.7012 163.49 43.084C163.162 43.4629 162.998 44.0273 162.998 44.7773ZM172.59 48V42.5977H171.658V41.7773H172.59V41.1152C172.59 40.6973 172.627 40.3867 172.701 40.1836C172.803 39.9102 172.98 39.6895 173.234 39.5215C173.492 39.3496 173.852 39.2637 174.312 39.2637C174.609 39.2637 174.938 39.2988 175.297 39.3691L175.139 40.2891C174.92 40.25 174.713 40.2305 174.518 40.2305C174.197 40.2305 173.971 40.2988 173.838 40.4355C173.705 40.5723 173.639 40.8281 173.639 41.2031V41.7773H174.852V42.5977H173.639V48H172.59ZM175.285 44.8887C175.285 43.7363 175.605 42.8828 176.246 42.3281C176.781 41.8672 177.434 41.6367 178.203 41.6367C179.059 41.6367 179.758 41.918 180.301 42.4805C180.844 43.0391 181.115 43.8125 181.115 44.8008C181.115 45.6016 180.994 46.2324 180.752 46.6934C180.514 47.1504 180.164 47.5059 179.703 47.7598C179.246 48.0137 178.746 48.1406 178.203 48.1406C177.332 48.1406 176.627 47.8613 176.088 47.3027C175.553 46.7441 175.285 45.9395 175.285 44.8887ZM176.369 44.8887C176.369 45.6855 176.543 46.2832 176.891 46.6816C177.238 47.0762 177.676 47.2734 178.203 47.2734C178.727 47.2734 179.162 47.0742 179.51 46.6758C179.857 46.2773 180.031 45.6699 180.031 44.8535C180.031 44.084 179.855 43.502 179.504 43.1074C179.156 42.709 178.723 42.5098 178.203 42.5098C177.676 42.5098 177.238 42.707 176.891 43.1016C176.543 43.4961 176.369 44.0918 176.369 44.8887ZM182.346 48V41.7773H183.295V42.7207C183.537 42.2793 183.76 41.9883 183.963 41.8477C184.17 41.707 184.396 41.6367 184.643 41.6367C184.998 41.6367 185.359 41.75 185.727 41.9766L185.363 42.9551C185.105 42.8027 184.848 42.7266 184.59 42.7266C184.359 42.7266 184.152 42.7969 183.969 42.9375C183.785 43.0742 183.654 43.2656 183.576 43.5117C183.459 43.8867 183.4 44.2969 183.4 44.7422V48H182.346ZM186.916 45.8672L186.594 41.3145V39.4102H187.9V41.3145L187.596 45.8672H186.916ZM186.641 48V46.7988H187.854V48H186.641Z" fill="#4D5156"/>
<path d="M14.6592 9V1.8418H15.5381V4.41016C15.9482 3.9349 16.4658 3.69727 17.0908 3.69727C17.4749 3.69727 17.8086 3.77376 18.0918 3.92676C18.375 4.0765 18.5768 4.28483 18.6973 4.55176C18.821 4.81868 18.8828 5.20605 18.8828 5.71387V9H18.0039V5.71387C18.0039 5.27441 17.9079 4.9554 17.7158 4.75684C17.527 4.55501 17.2585 4.4541 16.9102 4.4541C16.6497 4.4541 16.404 4.52246 16.1729 4.65918C15.945 4.79264 15.7822 4.97493 15.6846 5.20605C15.5869 5.43717 15.5381 5.75618 15.5381 6.16309V9H14.6592ZM22.1445 8.21387L22.2715 8.99023C22.0241 9.04232 21.8027 9.06836 21.6074 9.06836C21.2884 9.06836 21.041 9.0179 20.8652 8.91699C20.6895 8.81608 20.5658 8.68424 20.4941 8.52148C20.4225 8.35547 20.3867 8.00879 20.3867 7.48145V4.49805H19.7422V3.81445H20.3867V2.53027L21.2607 2.00293V3.81445H22.1445V4.49805H21.2607V7.53027C21.2607 7.78092 21.2754 7.94206 21.3047 8.01367C21.3372 8.08529 21.3877 8.14225 21.4561 8.18457C21.5277 8.22689 21.6286 8.24805 21.7588 8.24805C21.8564 8.24805 21.985 8.23665 22.1445 8.21387ZM24.9277 8.21387L25.0547 8.99023C24.8073 9.04232 24.5859 9.06836 24.3906 9.06836C24.0716 9.06836 23.8242 9.0179 23.6484 8.91699C23.4727 8.81608 23.349 8.68424 23.2773 8.52148C23.2057 8.35547 23.1699 8.00879 23.1699 7.48145V4.49805H22.5254V3.81445H23.1699V2.53027L24.0439 2.00293V3.81445H24.9277V4.49805H24.0439V7.53027C24.0439 7.78092 24.0586 7.94206 24.0879 8.01367C24.1204 8.08529 24.1709 8.14225 24.2393 8.18457C24.3109 8.22689 24.4118 8.24805 24.542 8.24805C24.6396 8.24805 24.7682 8.23665 24.9277 8.21387ZM25.792 10.9873V3.81445H26.5928V4.48828C26.7816 4.22461 26.9948 4.02767 27.2324 3.89746C27.4701 3.764 27.7581 3.69727 28.0967 3.69727C28.5394 3.69727 28.93 3.8112 29.2686 4.03906C29.6071 4.26693 29.8626 4.58919 30.0352 5.00586C30.2077 5.41927 30.2939 5.87337 30.2939 6.36816C30.2939 6.89876 30.1979 7.37728 30.0059 7.80371C29.8171 8.22689 29.5404 8.55241 29.1758 8.78027C28.8145 9.00488 28.4336 9.11719 28.0332 9.11719C27.7402 9.11719 27.4766 9.05534 27.2422 8.93164C27.0111 8.80794 26.8206 8.65169 26.6709 8.46289V10.9873H25.792ZM26.5879 6.43652C26.5879 7.10384 26.723 7.59701 26.9932 7.91602C27.2633 8.23503 27.5905 8.39453 27.9746 8.39453C28.3652 8.39453 28.6989 8.23014 28.9756 7.90137C29.2555 7.56934 29.3955 7.05664 29.3955 6.36328C29.3955 5.70247 29.2588 5.20768 28.9854 4.87891C28.7152 4.55013 28.3913 4.38574 28.0137 4.38574C27.6393 4.38574 27.3073 4.56152 27.0176 4.91309C26.7311 5.26139 26.5879 5.76921 26.5879 6.43652ZM31.0068 7.45215L31.876 7.31543C31.9248 7.66374 32.0599 7.93066 32.2812 8.11621C32.5059 8.30176 32.8184 8.39453 33.2188 8.39453C33.6224 8.39453 33.9219 8.31315 34.1172 8.15039C34.3125 7.98438 34.4102 7.79069 34.4102 7.56934C34.4102 7.37077 34.3239 7.21452 34.1514 7.10059C34.0309 7.02246 33.7314 6.92318 33.2529 6.80273C32.6084 6.63997 32.1608 6.5 31.9102 6.38281C31.6628 6.26237 31.474 6.09798 31.3438 5.88965C31.2168 5.67806 31.1533 5.44531 31.1533 5.19141C31.1533 4.96029 31.2054 4.74707 31.3096 4.55176C31.417 4.35319 31.5618 4.1888 31.7441 4.05859C31.8809 3.95768 32.0664 3.87305 32.3008 3.80469C32.5384 3.73307 32.7923 3.69727 33.0625 3.69727C33.4694 3.69727 33.8258 3.75586 34.1318 3.87305C34.4411 3.99023 34.6689 4.14974 34.8154 4.35156C34.9619 4.55013 35.0628 4.81706 35.1182 5.15234L34.2588 5.26953C34.2197 5.0026 34.1058 4.79427 33.917 4.64453C33.7314 4.49479 33.4678 4.41992 33.126 4.41992C32.7223 4.41992 32.4342 4.48665 32.2617 4.62012C32.0892 4.75358 32.0029 4.90983 32.0029 5.08887C32.0029 5.2028 32.0387 5.30534 32.1104 5.39648C32.182 5.49089 32.2943 5.56901 32.4473 5.63086C32.5352 5.66341 32.7939 5.73828 33.2236 5.85547C33.8454 6.02148 34.2783 6.1582 34.5225 6.26562C34.7699 6.36979 34.9635 6.52279 35.1035 6.72461C35.2435 6.92643 35.3135 7.17708 35.3135 7.47656C35.3135 7.76953 35.2272 8.04622 35.0547 8.30664C34.8854 8.5638 34.6396 8.764 34.3174 8.90723C33.9951 9.0472 33.6305 9.11719 33.2236 9.11719C32.5498 9.11719 32.0355 8.97721 31.6807 8.69727C31.3291 8.41732 31.1045 8.00228 31.0068 7.45215ZM36.6025 4.81543V3.81445H37.6035V4.81543H36.6025ZM36.6025 9V7.99902H37.6035V9H36.6025ZM38.4824 9.12207L40.5576 1.71973H41.2607L39.1904 9.12207H38.4824ZM41.2656 9.12207L43.3408 1.71973H44.0439L41.9736 9.12207H41.2656ZM44.5469 9.42969L45.4014 9.55664C45.4372 9.82031 45.5365 10.0124 45.6992 10.1328C45.9173 10.2956 46.2152 10.377 46.5928 10.377C46.9997 10.377 47.3138 10.2956 47.5352 10.1328C47.7565 9.97005 47.9062 9.74219 47.9844 9.44922C48.0299 9.27018 48.0511 8.89421 48.0479 8.32129C47.6637 8.77376 47.1852 9 46.6123 9C45.8994 9 45.3477 8.74284 44.957 8.22852C44.5664 7.71419 44.3711 7.09733 44.3711 6.37793C44.3711 5.88314 44.4606 5.42741 44.6396 5.01074C44.8187 4.59082 45.0775 4.26693 45.416 4.03906C45.7578 3.8112 46.1582 3.69727 46.6172 3.69727C47.2292 3.69727 47.7337 3.94466 48.1309 4.43945V3.81445H48.9414V8.29688C48.9414 9.10417 48.8584 9.67546 48.6924 10.0107C48.5296 10.3493 48.2692 10.6162 47.9111 10.8115C47.5563 11.0068 47.1185 11.1045 46.5977 11.1045C45.9792 11.1045 45.4795 10.9645 45.0986 10.6846C44.7178 10.4079 44.5339 9.98958 44.5469 9.42969ZM45.2744 6.31445C45.2744 6.99479 45.4095 7.49121 45.6797 7.80371C45.9499 8.11621 46.2884 8.27246 46.6953 8.27246C47.099 8.27246 47.4375 8.11784 47.7109 7.80859C47.9844 7.49609 48.1211 7.00781 48.1211 6.34375C48.1211 5.70898 47.9795 5.23047 47.6963 4.9082C47.4163 4.58594 47.0778 4.4248 46.6807 4.4248C46.29 4.4248 45.958 4.58431 45.6846 4.90332C45.4111 5.21908 45.2744 5.68945 45.2744 6.31445ZM53.8242 7.33008L54.7324 7.44238C54.5892 7.97298 54.3239 8.38477 53.9365 8.67773C53.5492 8.9707 53.0544 9.11719 52.4521 9.11719C51.6937 9.11719 51.0915 8.88444 50.6455 8.41895C50.2028 7.9502 49.9814 7.29427 49.9814 6.45117C49.9814 5.57878 50.2061 4.90169 50.6553 4.41992C51.1045 3.93815 51.6872 3.69727 52.4033 3.69727C53.0967 3.69727 53.6631 3.93327 54.1025 4.40527C54.542 4.87728 54.7617 5.54134 54.7617 6.39746C54.7617 6.44954 54.7601 6.52767 54.7568 6.63184H50.8896C50.9222 7.2015 51.0833 7.6377 51.373 7.94043C51.6628 8.24316 52.0241 8.39453 52.457 8.39453C52.7793 8.39453 53.0544 8.3099 53.2822 8.14062C53.5101 7.97135 53.6908 7.70117 53.8242 7.33008ZM50.9385 5.90918H53.834C53.7949 5.47298 53.6842 5.14583 53.502 4.92773C53.222 4.58919 52.859 4.41992 52.4131 4.41992C52.0094 4.41992 51.6693 4.55501 51.3926 4.8252C51.1191 5.09538 50.9678 5.45671 50.9385 5.90918ZM57.7598 8.21387L57.8867 8.99023C57.6393 9.04232 57.418 9.06836 57.2227 9.06836C56.9036 9.06836 56.6562 9.0179 56.4805 8.91699C56.3047 8.81608 56.181 8.68424 56.1094 8.52148C56.0378 8.35547 56.002 8.00879 56.002 7.48145V4.49805H55.3574V3.81445H56.002V2.53027L56.876 2.00293V3.81445H57.7598V4.49805H56.876V7.53027C56.876 7.78092 56.8906 7.94206 56.9199 8.01367C56.9525 8.08529 57.0029 8.14225 57.0713 8.18457C57.1429 8.22689 57.2438 8.24805 57.374 8.24805C57.4717 8.24805 57.6003 8.23665 57.7598 8.21387ZM58.6045 9V1.8418H59.4834V9H58.6045ZM60.8555 2.85254V1.8418H61.7344V2.85254H60.8555ZM60.8555 9V3.81445H61.7344V9H60.8555ZM63.0771 9V3.81445H63.8682V4.55176C64.249 3.9821 64.7992 3.69727 65.5186 3.69727C65.8311 3.69727 66.1175 3.75423 66.3779 3.86816C66.6416 3.97884 66.8385 4.12533 66.9688 4.30762C67.099 4.48991 67.1901 4.70638 67.2422 4.95703C67.2747 5.11979 67.291 5.40462 67.291 5.81152V9H66.4121V5.8457C66.4121 5.48763 66.3779 5.2207 66.3096 5.04492C66.2412 4.86589 66.1191 4.72428 65.9434 4.62012C65.7708 4.5127 65.5674 4.45898 65.333 4.45898C64.9587 4.45898 64.6348 4.5778 64.3613 4.81543C64.0911 5.05306 63.9561 5.50391 63.9561 6.16797V9H63.0771ZM72.1934 7.33008L73.1016 7.44238C72.9583 7.97298 72.693 8.38477 72.3057 8.67773C71.9183 8.9707 71.4235 9.11719 70.8213 9.11719C70.0628 9.11719 69.4606 8.88444 69.0146 8.41895C68.5719 7.9502 68.3506 7.29427 68.3506 6.45117C68.3506 5.57878 68.5752 4.90169 69.0244 4.41992C69.4736 3.93815 70.0563 3.69727 70.7725 3.69727C71.4658 3.69727 72.0322 3.93327 72.4717 4.40527C72.9111 4.87728 73.1309 5.54134 73.1309 6.39746C73.1309 6.44954 73.1292 6.52767 73.126 6.63184H69.2588C69.2913 7.2015 69.4525 7.6377 69.7422 7.94043C70.0319 8.24316 70.3932 8.39453 70.8262 8.39453C71.1484 8.39453 71.4235 8.3099 71.6514 8.14062C71.8792 7.97135 72.0599 7.70117 72.1934 7.33008ZM69.3076 5.90918H72.2031C72.1641 5.47298 72.0534 5.14583 71.8711 4.92773C71.5911 4.58919 71.2282 4.41992 70.7822 4.41992C70.3786 4.41992 70.0384 4.55501 69.7617 4.8252C69.4883 5.09538 69.3369 5.45671 69.3076 5.90918ZM74.2002 9V3.81445H74.9912V4.60059C75.193 4.23275 75.3786 3.99023 75.5479 3.87305C75.7204 3.75586 75.9092 3.69727 76.1143 3.69727C76.4105 3.69727 76.7116 3.79167 77.0176 3.98047L76.7148 4.7959C76.5 4.66895 76.2852 4.60547 76.0703 4.60547C75.8783 4.60547 75.7057 4.66406 75.5527 4.78125C75.3997 4.89518 75.2907 5.05469 75.2256 5.25977C75.1279 5.57227 75.0791 5.91406 75.0791 6.28516V9H74.2002ZM77.2324 9V7.99902H78.2334V9H77.2324ZM83.1504 7.10059L84.0146 7.21289C83.9202 7.80859 83.6777 8.27572 83.2871 8.61426C82.8997 8.94954 82.4229 9.11719 81.8564 9.11719C81.1468 9.11719 80.5755 8.88607 80.1426 8.42383C79.7129 7.95833 79.498 7.29264 79.498 6.42676C79.498 5.86686 79.5908 5.37695 79.7764 4.95703C79.9619 4.53711 80.2435 4.22298 80.6211 4.01465C81.002 3.80306 81.4154 3.69727 81.8613 3.69727C82.4245 3.69727 82.8851 3.84049 83.2432 4.12695C83.6012 4.41016 83.8307 4.8138 83.9316 5.33789L83.0771 5.46973C82.9958 5.12142 82.8509 4.85938 82.6426 4.68359C82.4375 4.50781 82.1885 4.41992 81.8955 4.41992C81.4528 4.41992 81.0931 4.57943 80.8164 4.89844C80.5397 5.21419 80.4014 5.71549 80.4014 6.40234C80.4014 7.09896 80.5348 7.60514 80.8018 7.9209C81.0687 8.23665 81.417 8.39453 81.8467 8.39453C82.1917 8.39453 82.4798 8.28874 82.7109 8.07715C82.9421 7.86556 83.0885 7.54004 83.1504 7.10059ZM84.4395 6.40723C84.4395 5.44694 84.7064 4.73568 85.2402 4.27344C85.6862 3.88932 86.2298 3.69727 86.8711 3.69727C87.584 3.69727 88.1667 3.93164 88.6191 4.40039C89.0716 4.86589 89.2979 5.51042 89.2979 6.33398C89.2979 7.0013 89.1969 7.52702 88.9951 7.91113C88.7965 8.29199 88.5052 8.58822 88.1211 8.7998C87.7402 9.01139 87.3236 9.11719 86.8711 9.11719C86.1452 9.11719 85.5576 8.88444 85.1084 8.41895C84.6624 7.95345 84.4395 7.28288 84.4395 6.40723ZM85.3428 6.40723C85.3428 7.07129 85.4876 7.56934 85.7773 7.90137C86.0671 8.23014 86.4316 8.39453 86.8711 8.39453C87.3073 8.39453 87.6702 8.22852 87.96 7.89648C88.2497 7.56445 88.3945 7.05827 88.3945 6.37793C88.3945 5.73665 88.248 5.25163 87.9551 4.92285C87.6654 4.59082 87.304 4.4248 86.8711 4.4248C86.4316 4.4248 86.0671 4.58919 85.7773 4.91797C85.4876 5.24674 85.3428 5.74316 85.3428 6.40723ZM90.333 9V3.81445H91.1191V4.54199C91.2819 4.28809 91.4984 4.08464 91.7686 3.93164C92.0387 3.77539 92.3464 3.69727 92.6914 3.69727C93.0755 3.69727 93.3896 3.77702 93.6338 3.93652C93.8812 4.09603 94.0553 4.31901 94.1562 4.60547C94.5664 4 95.1003 3.69727 95.7578 3.69727C96.2721 3.69727 96.6676 3.84049 96.9443 4.12695C97.221 4.41016 97.3594 4.84798 97.3594 5.44043V9H96.4854V5.7334C96.4854 5.38184 96.4561 5.12956 96.3975 4.97656C96.3421 4.82031 96.2396 4.69499 96.0898 4.60059C95.9401 4.50618 95.7643 4.45898 95.5625 4.45898C95.1979 4.45898 94.8952 4.58105 94.6543 4.8252C94.4134 5.06608 94.293 5.45345 94.293 5.9873V9H93.4141V5.63086C93.4141 5.24023 93.3424 4.94727 93.1992 4.75195C93.056 4.55664 92.8216 4.45898 92.4961 4.45898C92.2487 4.45898 92.0192 4.52409 91.8076 4.6543C91.5993 4.78451 91.4479 4.97493 91.3535 5.22559C91.2591 5.47624 91.2119 5.83757 91.2119 6.30957V9H90.333Z" fill="#202124"/>
<rect width="4" height="51" rx="2" fill="#7FDEDB"/>
<defs>
<clipPath id="clip0_1543_464">
<rect width="16" height="16" fill="white" transform="translate(26 61)"/>
</clipPath>
<clipPath id="clip1_1543_464">
<rect width="16" height="16" fill="white" transform="translate(14 61)"/>
</clipPath>
</defs>
</svg>
